<svg width="130" height="82" viewBox="0 0 130 82" fill="none" xmlns="http://www.w3.org/2000/svg">
<path d="M6 35.5C2.96243 35.5 0.5 37.9624 0.5 41C0.5 44.0376 2.96243 46.5 6 46.5L6 35.5ZM127.889 44.8891C130.037 42.7412 130.037 39.2588 127.889 37.1109L92.8873 2.10913C90.7394 -0.0387499 87.257 -0.0387502 85.1091 2.10913C82.9612 4.25702 82.9612 7.73942 85.1091 9.88731L116.222 41L85.1091 72.1127C82.9612 74.2606 82.9612 77.743 85.1091 79.8909C87.257 82.0388 90.7394 82.0388 92.8873 79.8909L127.889 44.8891ZM6 46.5L124 46.5L124 35.5L6 35.5L6 46.5Z" fill="url(#paint0_linear_359_1109)"/>
<defs>
<linearGradient id="paint0_linear_359_1109" x1="124" y1="41.5" x2="6" y2="41.5" gradientUnits="userSpaceOnUse">
<stop stop-color="#FFD644"/>
<stop offset="0.5" stop-color="#FD7503"/>
<stop offset="1" stop-color="#FF1B00"/>
</linearGradient>
</defs>
</svg>
