<svg width="24" height="25" viewBox="0 0 24 25" fill="none" xmlns="http://www.w3.org/2000/svg">
    <path d="M8.15156 19.4187C8.15156 19.5124 8.04375 19.5874 7.90781 19.5874C7.75312 19.6015 7.64531 19.5265 7.64531 19.4187C7.64531 19.3249 7.75313 19.2499 7.88906 19.2499C8.02969 19.2358 8.15156 19.3108 8.15156 19.4187ZM6.69375 19.2077C6.66094 19.3015 6.75469 19.4093 6.89531 19.4374C7.01719 19.4843 7.15781 19.4374 7.18594 19.3437C7.21406 19.2499 7.125 19.1421 6.98438 19.0999C6.8625 19.0671 6.72656 19.114 6.69375 19.2077ZM8.76562 19.128C8.62969 19.1608 8.53594 19.2499 8.55 19.3577C8.56406 19.4515 8.68594 19.5124 8.82656 19.4796C8.9625 19.4468 9.05625 19.3577 9.04219 19.264C9.02812 19.1749 8.90156 19.114 8.76562 19.128ZM11.85 1.16553C5.34844 1.16553 0.375 6.10147 0.375 12.603C0.375 17.8015 3.64688 22.2499 8.32031 23.8155C8.92031 23.9233 9.13125 23.553 9.13125 23.2483C9.13125 22.9577 9.11719 21.3546 9.11719 20.3702C9.11719 20.3702 5.83594 21.0733 5.14688 18.9733C5.14688 18.9733 4.6125 17.6093 3.84375 17.2577C3.84375 17.2577 2.77031 16.5218 3.91875 16.5358C3.91875 16.5358 5.08594 16.6296 5.72812 17.7452C6.75469 19.5546 8.475 19.0343 9.14531 18.7249C9.25313 17.9749 9.55781 17.4546 9.89531 17.1452C7.275 16.8546 4.63125 16.4749 4.63125 11.9655C4.63125 10.6765 4.9875 10.0296 5.7375 9.20459C5.61562 8.8999 5.21719 7.64365 5.85938 6.02178C6.83906 5.71709 9.09375 7.2874 9.09375 7.2874C10.0312 7.0249 11.0391 6.88897 12.0375 6.88897C13.0359 6.88897 14.0438 7.0249 14.9813 7.2874C14.9813 7.2874 17.2359 5.7124 18.2156 6.02178C18.8578 7.64834 18.4594 8.8999 18.3375 9.20459C19.0875 10.0343 19.5469 10.6812 19.5469 11.9655C19.5469 16.489 16.7859 16.8499 14.1656 17.1452C14.5969 17.5155 14.9625 18.2187 14.9625 19.3202C14.9625 20.8999 14.9484 22.8546 14.9484 23.239C14.9484 23.5437 15.1641 23.914 15.7594 23.8062C20.4469 22.2499 23.625 17.8015 23.625 12.603C23.625 6.10147 18.3516 1.16553 11.85 1.16553ZM4.93125 17.3327C4.87031 17.3796 4.88438 17.4874 4.96406 17.5765C5.03906 17.6515 5.14687 17.6843 5.20781 17.6233C5.26875 17.5765 5.25469 17.4687 5.175 17.3796C5.1 17.3046 4.99219 17.2718 4.93125 17.3327ZM4.425 16.953C4.39219 17.014 4.43906 17.089 4.53281 17.1358C4.60781 17.1827 4.70156 17.1687 4.73438 17.103C4.76719 17.0421 4.72031 16.9671 4.62656 16.9202C4.53281 16.8921 4.45781 16.9062 4.425 16.953ZM5.94375 18.6218C5.86875 18.6827 5.89687 18.8233 6.00469 18.9124C6.1125 19.0202 6.24844 19.0343 6.30937 18.9593C6.37031 18.8983 6.34219 18.7577 6.24844 18.6687C6.14531 18.5608 6.00469 18.5468 5.94375 18.6218ZM5.40938 17.9327C5.33437 17.9796 5.33437 18.1015 5.40938 18.2093C5.48438 18.3171 5.61094 18.364 5.67188 18.3171C5.74687 18.2562 5.74687 18.1343 5.67188 18.0265C5.60625 17.9187 5.48438 17.8718 5.40938 17.9327Z" fill="#0E0C0C"/>
</svg>
