<svg width="24" height="25" viewBox="0 0 24 25" fill="none" xmlns="http://www.w3.org/2000/svg">
    <path d="M21 2H2.99531C2.17031 2 1.5 2.67969 1.5 3.51406V21.4859C1.5 22.3203 2.17031 23 2.99531 23H21C21.825 23 22.5 22.3203 22.5 21.4859V3.51406C22.5 2.67969 21.825 2 21 2ZM7.84687 20H4.73438V9.97812H7.85156V20H7.84687ZM6.29062 8.60938C5.29219 8.60938 4.48594 7.79844 4.48594 6.80469C4.48594 5.81094 5.29219 5 6.29062 5C7.28437 5 8.09531 5.81094 8.09531 6.80469C8.09531 7.80312 7.28906 8.60938 6.29062 8.60938ZM19.5141 20H16.4016V15.125C16.4016 13.9625 16.3781 12.4672 14.7844 12.4672C13.1625 12.4672 12.9141 13.7328 12.9141 15.0406V20H9.80156V9.97812H12.7875V11.3469H12.8297C13.2469 10.5594 14.2641 9.72969 15.7781 9.72969C18.9281 9.72969 19.5141 11.8062 19.5141 14.5062V20Z" fill="black"/>
</svg>
