<?xml version="1.0" encoding="UTF-8" standalone="no"?>
<!DOCTYPE svg PUBLIC "-//W3C//DTD SVG 1.1//EN" "http://www.w3.org/Graphics/SVG/1.1/DTD/svg11.dtd">
<!-- Created with Vectornator (http://vectornator.io/) -->
<svg height="100%" stroke-miterlimit="10" style="fill-rule:nonzero;clip-rule:evenodd;stroke-linecap:round;stroke-linejoin:round;" version="1.1" viewBox="0 0 72.8 72.8" width="100%" xml:space="preserve" xmlns="http://www.w3.org/2000/svg" xmlns:vectornator="http://vectornator.io" xmlns:xlink="http://www.w3.org/1999/xlink">
<defs/>
<g id="Untitled" vectornator:layerName="Untitled">
<g opacity="1">
<path d="M36.4 0.0023C30.2015 0.0023 24.3649 1.55173 19.2563 4.2844L53.5436 4.2844C48.435 1.55173 42.5984 0.0023 36.4 0.0023Z" fill="#000000" fill-rule="nonzero" opacity="1" stroke="none"/>
<path d="M59.8543 8.56574L12.9456 8.56574C11.3974 9.87163 9.95971 11.3043 8.64847 12.8478L64.1515 12.8478C62.8402 11.3043 61.4025 9.87163 59.8543 8.56574Z" fill="#000000" fill-rule="nonzero" opacity="1" stroke="none"/>
<path d="M67.2844 17.1306L36.8781 17.1306L5.51565 17.1306C4.65967 18.4997 3.89219 19.9297 3.22123 21.4127L69.5788 21.4127C68.9079 19.9297 68.1404 18.4997 67.2844 17.1306Z" fill="#000000" fill-rule="nonzero" opacity="1" stroke="none"/>
<path d="M71.1979 25.6941L1.60219 25.6941C1.17395 27.0876 0.827117 28.5169 0.56725 29.9762L72.2327 29.9762C71.9728 28.5169 71.6261 27.0876 71.1979 25.6941Z" fill="#000000" fill-rule="nonzero" opacity="1" stroke="none"/>
<path d="M72.7359 34.259L0.0640853 34.259C0.0229855 34.9674 0.00215 35.6814 0.00215 36.4002C0.00215 37.1188 0.0229797 37.8327 0.0640682 38.541L72.7359 38.541C72.777 37.8327 72.7978 37.1188 72.7978 36.4002C72.7978 35.6814 72.777 34.9674 72.7359 34.259Z" fill="#000000" fill-rule="nonzero" opacity="1" stroke="none"/>
<path d="M72.2328 42.8238L0.567174 42.8238C0.827028 44.2832 1.17385 45.7124 1.60208 47.1059L71.1978 47.1059C71.6261 45.7124 71.9729 44.2832 72.2328 42.8238Z" fill="#000000" fill-rule="nonzero" opacity="1" stroke="none"/>
<path d="M69.5789 51.3873L3.22106 51.3873C3.89201 52.8703 4.65947 54.3003 5.51543 55.6694L67.2845 55.6694C68.1405 54.3003 68.9079 52.8703 69.5789 51.3873Z" fill="#000000" fill-rule="nonzero" opacity="1" stroke="none"/>
<path d="M64.1517 59.9522L8.64825 59.9522C9.95946 61.4957 11.3971 62.9284 12.9452 64.2343L59.8547 64.2343C61.4028 62.9284 62.8405 61.4957 64.1517 59.9522Z" fill="#000000" fill-rule="nonzero" opacity="1" stroke="none"/>
<path d="M53.5442 68.5156L19.2558 68.5156C24.3237 71.2267 30.1082 72.7732 36.2518 72.7977L36.5481 72.7977C42.6917 72.7732 48.4762 71.2267 53.5442 68.5156Z" fill="#000000" fill-rule="nonzero" opacity="1" stroke="none"/>
</g>
</g>
</svg>
