<svg width="58" height="40" viewBox="0 0 58 40" fill="none" xmlns="http://www.w3.org/2000/svg">
<rect width="58" height="40" fill="white"/>
<g clip-path="url(#clip0_462_5448)">
<path d="M18.6419 16.5802C18.6419 17.1698 18.705 17.6478 18.8155 17.9984C18.9419 18.3489 19.0998 18.7313 19.3208 19.1456C19.3998 19.2731 19.4313 19.4006 19.4313 19.5121C19.4313 19.6714 19.3366 19.8308 19.1313 19.9901L18.1366 20.6594C17.9945 20.755 17.8524 20.8028 17.7261 20.8028C17.5682 20.8028 17.4103 20.7231 17.2524 20.5797C17.0313 20.3407 16.8419 20.0857 16.684 19.8308C16.5261 19.5599 16.3682 19.2572 16.1945 18.8907C14.9629 20.3566 13.4155 21.0896 11.5524 21.0896C10.2261 21.0896 9.16818 20.7072 8.3945 19.9423C7.62081 19.1775 7.22607 18.1577 7.22607 16.883C7.22607 15.5286 7.69976 14.4291 8.66292 13.6006C9.62607 12.772 10.905 12.3577 12.5313 12.3577C13.0682 12.3577 13.6208 12.4055 14.205 12.4852C14.7892 12.5649 15.3892 12.6923 16.0208 12.8357V11.6725C16.0208 10.4616 15.7682 9.61705 15.2787 9.1231C14.7734 8.62914 13.9208 8.39013 12.705 8.39013C12.1524 8.39013 11.584 8.45386 10.9998 8.59727C10.4155 8.74068 9.84713 8.91595 9.2945 9.13903C9.04186 9.25057 8.85239 9.3143 8.74186 9.34617C8.63134 9.37804 8.55239 9.39397 8.48923 9.39397C8.26818 9.39397 8.15765 9.23463 8.15765 8.90002V8.11925C8.15765 7.8643 8.18923 7.6731 8.26818 7.56156C8.34713 7.45002 8.48923 7.33848 8.71028 7.22694C9.26292 6.94013 9.92607 6.70112 10.6998 6.50991C11.4734 6.30277 12.2945 6.20716 13.1629 6.20716C15.0419 6.20716 16.4155 6.63738 17.2998 7.49782C18.1682 8.35826 18.6103 9.66485 18.6103 11.4176V16.5802H18.6419ZM12.2313 19.0022C12.7524 19.0022 13.2892 18.9066 13.8577 18.7154C14.4261 18.5242 14.9313 18.1736 15.3577 17.6956C15.6103 17.3929 15.7998 17.0583 15.8945 16.6758C15.9892 16.2934 16.0524 15.8313 16.0524 15.2896V14.6203C15.5945 14.5088 15.105 14.4132 14.5998 14.3495C14.0945 14.2857 13.605 14.2539 13.1155 14.2539C12.0577 14.2539 11.284 14.461 10.7629 14.8912C10.2419 15.3214 9.98923 15.9269 9.98923 16.7236C9.98923 17.4725 10.1787 18.0302 10.5734 18.4127C10.9524 18.811 11.505 19.0022 12.2313 19.0022ZM24.9103 20.7231C24.6261 20.7231 24.4366 20.6753 24.3103 20.5638C24.184 20.4682 24.0734 20.2451 23.9787 19.9423L20.2682 7.62529C20.1734 7.30661 20.1261 7.09947 20.1261 6.98793C20.1261 6.73299 20.2524 6.58958 20.505 6.58958H22.0524C22.3524 6.58958 22.5577 6.63738 22.6682 6.74892C22.7945 6.84452 22.8892 7.0676 22.984 7.37035L25.6366 17.9187L28.0998 7.37035C28.1787 7.05167 28.2734 6.84452 28.3998 6.74892C28.5261 6.65331 28.7471 6.58958 29.0313 6.58958H30.2945C30.5945 6.58958 30.7998 6.63738 30.9261 6.74892C31.0524 6.84452 31.1629 7.0676 31.2261 7.37035L33.7208 18.0462L36.4524 7.37035C36.5471 7.05167 36.6577 6.84452 36.7682 6.74892C36.8945 6.65331 37.0998 6.58958 37.384 6.58958H38.8524C39.105 6.58958 39.2471 6.71705 39.2471 6.98793C39.2471 7.0676 39.2313 7.14727 39.2155 7.24288C39.1998 7.33848 39.1682 7.46595 39.105 7.64123L35.2998 19.9583C35.205 20.2769 35.0945 20.4841 34.9682 20.5797C34.8419 20.6753 34.6366 20.739 34.3682 20.739H33.0103C32.7103 20.739 32.505 20.6912 32.3787 20.5797C32.2524 20.4682 32.1419 20.261 32.0787 19.9423L29.6313 9.66485L27.1998 19.9264C27.1208 20.2451 27.0261 20.4522 26.8998 20.5638C26.7734 20.6753 26.5524 20.7231 26.2682 20.7231H24.9103ZM45.1998 21.1533C44.3787 21.1533 43.5577 21.0577 42.7682 20.8665C41.9787 20.6753 41.3629 20.4682 40.9524 20.2291C40.6998 20.0857 40.5261 19.9264 40.4629 19.783C40.3998 19.6396 40.3682 19.4802 40.3682 19.3368V18.5242C40.3682 18.1896 40.4945 18.0302 40.7313 18.0302C40.8261 18.0302 40.9208 18.0462 41.0155 18.078C41.1103 18.1099 41.2524 18.1736 41.4103 18.2374C41.9471 18.4764 42.5313 18.6676 43.1471 18.7951C43.7787 18.9225 44.3945 18.9863 45.0261 18.9863C46.0208 18.9863 46.7945 18.811 47.3313 18.4605C47.8682 18.1099 48.1524 17.6 48.1524 16.9467C48.1524 16.5006 48.0103 16.1341 47.7261 15.8313C47.4419 15.5286 46.905 15.2577 46.1313 15.0028L43.8419 14.2857C42.6892 13.9192 41.8366 13.3775 41.3155 12.6605C40.7945 11.9594 40.5261 11.1786 40.5261 10.35C40.5261 9.68079 40.6682 9.09123 40.9524 8.58134C41.2366 8.07145 41.6155 7.62529 42.0892 7.27474C42.5629 6.90826 43.0998 6.63738 43.7313 6.44617C44.3629 6.25496 45.0261 6.17529 45.7208 6.17529C46.0682 6.17529 46.4313 6.19123 46.7787 6.23903C47.1419 6.28683 47.4734 6.35057 47.805 6.4143C48.1208 6.49397 48.4208 6.57364 48.705 6.66925C48.9892 6.76485 49.2103 6.86046 49.3682 6.95606C49.5892 7.08353 49.7471 7.21101 49.8419 7.35441C49.9366 7.48189 49.984 7.65716 49.984 7.88024V8.62914C49.984 8.96375 49.8577 9.13903 49.6208 9.13903C49.4945 9.13903 49.2892 9.07529 49.0208 8.94782C48.1208 8.53353 47.1103 8.32639 45.9892 8.32639C45.0892 8.32639 44.3787 8.4698 43.8892 8.77255C43.3998 9.07529 43.1471 9.53738 43.1471 10.1907C43.1471 10.6368 43.305 11.0192 43.6208 11.322C43.9366 11.6247 44.5208 11.9275 45.3577 12.1984L47.5998 12.9154C48.7366 13.2819 49.5577 13.7918 50.0471 14.4451C50.5366 15.0984 50.7734 15.8473 50.7734 16.6758C50.7734 17.361 50.6313 17.9824 50.3629 18.5242C50.0787 19.066 49.6998 19.544 49.2103 19.9264C48.7208 20.3247 48.1366 20.6116 47.4577 20.8187C46.7471 21.0418 46.005 21.1533 45.1998 21.1533Z" fill="#252F3E"/>
<path fill-rule="evenodd" clip-rule="evenodd" d="M48.184 28.8973C42.9893 32.7693 35.4419 34.8248 28.9524 34.8248C19.8577 34.8248 11.663 31.4308 5.4735 25.7902C4.98403 25.344 5.42613 24.7385 6.01034 25.0891C12.7051 29.0089 20.963 31.383 29.5051 31.383C35.2682 31.383 41.5998 30.172 47.4261 27.6863C48.2946 27.288 49.0367 28.2599 48.184 28.8973Z" fill="#FF9900"/>
<path fill-rule="evenodd" clip-rule="evenodd" d="M50.3472 26.4115C49.6841 25.5511 45.9577 25.9973 44.2683 26.2044C43.763 26.2681 43.6841 25.822 44.142 25.4874C47.1104 23.3841 51.9893 23.9896 52.5577 24.6907C53.1262 25.4077 52.3999 30.3313 49.6209 32.6896C49.1946 33.056 48.7841 32.8648 48.9735 32.3868C49.6051 30.8093 51.0104 27.2561 50.3472 26.4115Z" fill="#FF9900"/>
</g>
<defs>
<clipPath id="clip0_462_5448">
<rect width="48" height="29" fill="white" transform="translate(5 6)"/>
</clipPath>
</defs>
</svg>
