<svg height="512pt" viewBox="0 0 512.00056 512" width="512pt" xmlns="http://www.w3.org/2000/svg"><path d="m42.667969 76.800781h426.664062v392.53125h-426.664062zm0 0" fill="#e6e6e6"/><path d="m426.667969 256h-162.132813l-34.136718 25.601562v-25.601562h-34.132813v-136.53125h230.402344zm0 0" fill="#29abe2"/><path d="m238.933594 145.066406h17.066406v17.066406h-17.066406zm0 0" fill="#e6e6e6"/><path d="m221.867188 179.199219h179.199218v17.066406h-179.199218zm0 0" fill="#e6e6e6"/><path d="m221.867188 213.332031h145.066406v17.070313h-145.066406zm0 0" fill="#e6e6e6"/><path d="m273.066406 145.066406h128v17.066406h-128zm0 0" fill="#e6e6e6"/><path d="m17.066406 42.667969h477.867188v34.132812h-477.867188zm0 0" fill="#0071bc"/><g fill="#b3b3b3"><path d="m256 409.601562h59.734375v17.066407h-59.734375zm0 0"/><path d="m332.800781 409.601562h17.066407v17.066407h-17.066407zm0 0"/><path d="m256 375.46875h76.800781v17.066406h-76.800781zm0 0"/><path d="m349.867188 375.46875h17.066406v17.066406h-17.066406zm0 0"/><path d="m256 341.332031h145.066406v17.070313h-145.066406zm0 0"/><path d="m418.132812 341.332031h17.066407v17.070313h-17.066407zm0 0"/><path d="m256 307.199219h102.398438v17.066406h-102.398438zm0 0"/><path d="m375.46875 307.199219h17.066406v17.066406h-17.066406zm0 0"/></g><path d="m85.332031 119.46875h68.269531v34.132812h-68.269531zm0 0" fill="#29abe2"/><path d="m76.800781 179.199219h85.332031v17.066406h-85.332031zm0 0" fill="#b3b3b3"/><path d="m76.800781 213.332031h85.332031v17.070313h-85.332031zm0 0" fill="#b3b3b3"/><path d="m477.867188 512h-59.734376v-17.066406h59.734376c9.425781 0 17.066406-7.640625 17.066406-17.066406v-128h17.066406v128c0 18.851562-15.28125 34.132812-34.132812 34.132812zm0 0" fill="#ccc"/><path d="m494.933594 315.734375h17.066406v17.066406h-17.066406zm0 0" fill="#ccc"/><path d="m0 145.066406h17.066406v187.734375h-17.066406zm0 0" fill="#ccc"/><path d="m128 0h17.066406v17.066406h-17.066406zm0 0" fill="#ccc"/><path d="m162.132812 0h221.867188v17.066406h-221.867188zm0 0" fill="#ccc"/><path d="m196.011719 403.132812-42.410157-10.597656v-17.070312c10.457032-5.226563 17.066407-15.917969 17.066407-27.613282v-49.183593c0-23.566407-19.105469-42.667969-42.667969-42.667969s-42.667969 19.101562-42.667969 42.667969v49.183593c0 11.695313 6.609375 22.386719 17.066407 27.613282v17.070312l-42.410157 10.597656c-15.195312 3.796876-25.855469 17.453126-25.855469 33.117188v58.683594h25.601563v-42.667969h17.066406v59.734375h102.398438v-59.734375h17.066406v42.667969h25.601563v-58.683594c0-15.664062-10.660157-29.320312-25.855469-33.117188zm0 0" fill="#0071bc"/></svg>