<svg width="34" height="34" viewBox="0 0 34 34" fill="none" xmlns="http://www.w3.org/2000/svg">
<mask id="mask0_424_7139" style="mask-type:alpha" maskUnits="userSpaceOnUse" x="0" y="0" width="34" height="34">
<rect width="34" height="34" fill="#D9D9D9"/>
</mask>
<g mask="url(#mask0_424_7139)">
<path d="M26.7748 29.75L19.0186 21.9938L21.9936 19.0188L29.7498 26.775L26.7748 29.75ZM7.22484 29.75L4.24984 26.775L14.0248 17L11.6165 14.5917L10.6248 15.5834L8.81859 13.7771V16.6813L7.82692 17.6729L3.5415 13.3875L4.53317 12.3958H7.43734L5.6665 10.625L10.6957 5.59585C11.1679 5.12363 11.6755 4.78127 12.2186 4.56877C12.7616 4.35627 13.3165 4.25002 13.8832 4.25002C14.4498 4.25002 15.0047 4.35627 15.5478 4.56877C16.0908 4.78127 16.5984 5.12363 17.0707 5.59585L13.8123 8.85418L15.5832 10.625L14.5915 11.6167L16.9998 14.025L20.1873 10.8375C20.0929 10.5778 20.0162 10.3063 19.9571 10.0229C19.8981 9.7396 19.8686 9.45627 19.8686 9.17293C19.8686 7.77988 20.3467 6.60522 21.303 5.64897C22.2592 4.69272 23.4339 4.2146 24.8269 4.2146C25.1811 4.2146 25.5175 4.25002 25.8363 4.32085C26.155 4.39168 26.4797 4.49793 26.8103 4.6396L23.304 8.14585L25.854 10.6958L29.3603 7.1896C29.5255 7.52016 29.6377 7.84481 29.6967 8.16356C29.7557 8.48231 29.7853 8.81877 29.7853 9.17293C29.7853 10.566 29.3071 11.7406 28.3509 12.6969C27.3946 13.6531 26.22 14.1313 24.8269 14.1313C24.5436 14.1313 24.2603 14.1077 23.9769 14.0604C23.6936 14.0132 23.4221 13.9306 23.1623 13.8125L7.22484 29.75Z" fill="#FFA102"/>
</g>
</svg>
