<svg width="120" height="40" viewBox="0 0 120 40" fill="none" xmlns="http://www.w3.org/2000/svg">
<g clip-path="url(#clip0_462_5463)">
<rect width="120" height="40" fill="white"/>
<path d="M11.1201 28.946L11.3148 28.6778L20.5225 11.493L20.5419 11.311L16.4831 3.81183C16.1429 3.18365 15.1855 3.34241 15.0739 4.04563L11.1201 28.946Z" fill="#FFC24A"/>
<path d="M11.2349 28.7414L11.3821 28.459L20.4923 11.4542L16.4446 3.92454C16.108 3.30286 15.2536 3.46135 15.1424 4.15726L11.2349 28.7414Z" fill="#FFA712"/>
<path d="M11.2349 28.7414L11.3821 28.459L20.4923 11.4542L16.4446 3.92454C16.108 3.30286 15.2536 3.46135 15.1424 4.15726L11.2349 28.7414Z" fill="black"/>
<path d="M23.5009 16.9834L26.5231 13.9391L23.5001 8.26259C23.2131 7.72525 22.4118 7.72372 22.1279 8.26259L20.5127 11.2934V11.5514L23.5009 16.9834Z" fill="#F4BD62"/>
<path d="M23.4471 16.8566L26.3852 13.8968L23.4471 8.39381C23.1681 7.87063 22.4903 7.81669 22.2143 8.33969L20.5906 11.4156L20.542 11.5729L23.4471 16.8566Z" fill="#FFA50E"/>
<path d="M23.4471 16.8566L26.3852 13.8968L23.4471 8.39381C23.1681 7.87063 22.4903 7.81669 22.2143 8.33969L20.5906 11.4156L20.542 11.5729L23.4471 16.8566Z" fill="black"/>
<path d="M20.5212 11.2759L11.1201 28.946L11.2083 28.8587L11.5289 28.7306L23.3112 17.1846L23.4603 16.785L20.5212 11.2759Z" fill="#F6820C"/>
<path d="M23.8783 34.7688L34.5415 28.9193L31.4973 10.4726C31.4019 9.89551 30.6822 9.6673 30.2623 10.0811L11.1201 28.946L21.7221 34.7684C22.0517 34.9494 22.4228 35.0444 22.8002 35.0445C23.1776 35.0446 23.5488 34.9497 23.8784 34.7689" fill="#FDE068"/>
<path d="M34.4459 28.8704L31.424 10.5644C31.3296 9.99162 30.7307 9.75466 30.314 10.1654L11.2393 28.9101L21.7248 34.674C22.3897 35.0392 23.1994 35.0394 23.8647 34.6746L34.4459 28.8704Z" fill="#FCCA3F"/>
<path d="M23.8783 34.5965C23.2089 34.9642 22.392 34.964 21.722 34.596L11.2054 28.8573L11.1201 28.946L21.7221 34.7684C22.3921 35.1364 23.2081 35.1364 23.8784 34.7689L34.5416 28.9194L34.5154 28.7614L23.8783 34.5965Z" fill="#EEAB37"/>
<path d="M42.615 26.237H40.8003V12.345H49.0353V14.052H42.615V18.612H48.4151V20.282H42.615V26.237ZM52.2256 14.343C51.9755 14.589 51.6735 14.713 51.3187 14.713C51.1498 14.7159 50.9822 14.6845 50.8261 14.6209C50.6701 14.5572 50.5291 14.4626 50.4119 14.343C50.2907 14.2273 50.1949 14.0886 50.1302 13.9352C50.0655 13.7818 50.0334 13.6171 50.0357 13.451C50.0328 13.2849 50.0647 13.12 50.1294 12.9665C50.1941 12.813 50.2903 12.6743 50.4119 12.559C50.5295 12.4399 50.6706 12.3456 50.8265 12.282C50.9824 12.2184 51.1499 12.1867 51.3187 12.189C51.4876 12.1862 51.6553 12.2175 51.8113 12.2812C51.9673 12.3448 52.1084 12.4394 52.2256 12.559C52.3467 12.6747 52.4425 12.8135 52.5072 12.9669C52.5719 13.1202 52.6041 13.285 52.6018 13.451C52.6047 13.6171 52.5728 13.7821 52.5081 13.9355C52.4433 14.089 52.3472 14.2277 52.2256 14.343ZM52.2256 26.237H50.4108V16.73H52.2256V26.237ZM56.1428 26.237H54.327V16.73H56.0625V18.282H56.1408C56.3238 17.765 56.703 17.338 57.2754 17.002C57.8478 16.666 58.3937 16.497 58.9427 16.497C59.4917 16.497 59.936 16.575 60.305 16.73L59.6137 18.4C59.3768 18.3 59.0545 18.264 58.6479 18.264C57.9901 18.264 57.4075 18.519 56.9023 19.03C56.397 19.541 56.1428 20.21 56.1428 21.038V26.237ZM65.0773 26.537C63.6173 26.537 62.4309 26.059 61.5169 25.101C60.6029 24.143 60.1444 22.935 60.1444 21.473C60.1444 20.089 60.5877 18.899 61.4661 17.903C62.3445 16.907 63.4994 16.409 64.8689 16.409C66.2922 16.409 67.4492 16.869 68.3113 17.787C69.1734 18.705 69.6025 19.934 69.6025 21.474L69.5821 21.804H61.9571C62.01 22.761 62.3353 23.518 62.9331 24.074C63.2105 24.342 63.5389 24.5537 63.8994 24.6968C64.26 24.8399 64.6458 24.9117 65.0346 24.908C66.3359 24.908 67.2174 24.365 67.6779 23.278L69.3046 23.938C68.9996 24.675 68.4689 25.293 67.746 25.791C67.0232 26.289 66.1346 26.538 65.0824 26.538L65.0773 26.537ZM67.6799 20.337C67.6393 19.794 67.3871 19.277 66.9205 18.785C66.4538 18.293 65.7595 18.048 64.8394 18.048C64.1684 18.048 63.5868 18.255 63.0938 18.668C62.6007 19.081 62.2621 19.638 62.0771 20.338H67.6688L67.6799 20.337ZM76.1823 26.537C75.4452 26.537 74.7844 26.382 74.1998 26.071C73.6152 25.76 73.1771 25.373 72.8782 24.907H72.81V26.227H71.0746V12.345H72.8893V16.73L72.81 18.05H72.8893C73.1791 17.584 73.6163 17.196 74.211 16.886C74.8058 16.576 75.4574 16.42 76.1935 16.42C77.444 16.42 78.5318 16.905 79.4285 17.875C80.3252 18.845 80.7909 20.048 80.7909 21.475C80.7909 22.902 80.3374 24.115 79.4285 25.075C78.5196 26.035 77.443 26.53 76.1935 26.53L76.1823 26.537ZM75.8773 24.907C76.7191 24.907 77.443 24.593 78.0469 23.967C78.6508 23.341 78.9538 22.509 78.9538 21.474C78.9538 20.439 78.6508 19.608 78.0469 18.981C77.443 18.354 76.7181 18.041 75.8773 18.041C75.4674 18.0331 75.0606 18.1121 74.6845 18.2726C74.3084 18.433 73.9718 18.6712 73.6976 18.971C73.0998 19.601 72.7999 20.426 72.7999 21.474C72.7999 22.522 73.0988 23.356 73.6976 23.977C74.2964 24.598 75.0223 24.909 75.8773 24.909V24.907ZM85.5489 26.537C84.5322 26.537 83.665 26.237 82.9747 25.664C82.2844 25.091 81.9377 24.312 81.9377 23.364C81.9377 22.329 82.3443 21.518 83.1607 20.929C83.9771 20.34 84.9826 20.046 86.1802 20.046C87.2457 20.046 88.12 20.24 88.8032 20.628V20.356C88.8032 19.656 88.5592 19.098 88.0733 18.678C87.5873 18.258 86.9885 18.048 86.2778 18.048C85.7512 18.048 85.2744 18.171 84.8474 18.418C84.4411 18.6396 84.1296 18.9979 83.97 19.427L82.3128 18.729C82.5365 18.159 82.9767 17.633 83.6345 17.149C84.2923 16.665 85.1595 16.421 86.2372 16.421C87.4734 16.421 88.4992 16.777 89.3146 17.488C90.13 18.199 90.5377 19.202 90.5377 20.495V26.238H88.8124V24.918H88.7331C88.0092 26.004 86.9509 26.548 85.557 26.548L85.5489 26.537ZM85.8539 24.907C86.6032 24.907 87.2843 24.632 87.8953 24.082C88.5064 23.532 88.8124 22.882 88.8124 22.132C88.3 21.718 87.5314 21.512 86.5045 21.512C85.6231 21.512 84.9592 21.7 84.5119 22.075C84.0645 22.45 83.8409 22.89 83.8409 23.395C83.8409 23.861 84.0442 24.229 84.4529 24.501C84.8616 24.773 85.3272 24.909 85.8539 24.909V24.907ZM95.8172 26.537C94.7395 26.537 93.8479 26.277 93.1434 25.761C92.457 25.2654 91.9215 24.5945 91.595 23.821L93.2217 23.161C93.7341 24.361 94.6094 24.946 95.8447 24.946C96.4099 24.946 96.8735 24.823 97.2355 24.576C97.5974 24.329 97.7784 24.006 97.7784 23.606C97.7784 22.986 97.3381 22.566 96.4567 22.346L94.5047 21.88C93.8866 21.725 93.301 21.43 92.7489 20.997C92.1969 20.564 91.9234 20 91.9234 19.252C91.9234 18.412 92.3016 17.729 93.058 17.205C93.8144 16.681 94.7121 16.419 95.7521 16.419C96.6061 16.419 97.3788 16.619 98.0396 16.991C98.7005 17.363 99.1905 17.919 99.4803 18.631L97.9024 19.271C97.5466 18.431 96.8105 18.011 95.6932 18.011C95.1543 18.011 94.6999 18.111 94.3308 18.341C93.9618 18.571 93.7788 18.858 93.7788 19.233C93.7788 19.776 94.2058 20.145 95.0598 20.339L96.9732 20.785C97.88 20.992 98.551 21.348 98.9862 21.852C99.4213 22.356 99.6368 22.926 99.6368 23.559C99.6368 24.413 99.281 25.124 98.5714 25.693C97.8617 26.262 96.9467 26.547 95.8294 26.547L95.8172 26.537ZM105.483 26.537C104.023 26.537 102.835 26.059 101.922 25.101C101.009 24.143 100.55 22.935 100.55 21.473C100.55 20.089 100.993 18.899 101.871 17.903C102.75 16.907 103.905 16.409 105.274 16.409C106.698 16.409 107.855 16.869 108.717 17.787C109.579 18.705 110.008 19.934 110.008 21.474V21.804H102.383C102.434 22.761 102.761 23.518 103.359 24.074C103.636 24.3419 103.964 24.5535 104.325 24.6966C104.685 24.8397 105.071 24.9115 105.459 24.908C106.761 24.908 107.642 24.365 108.103 23.278L109.729 23.938C109.424 24.675 108.894 25.293 108.171 25.791C107.448 26.289 106.559 26.538 105.507 26.538L105.483 26.537ZM108.085 20.337C108.045 19.794 107.793 19.277 107.326 18.785C106.859 18.293 106.165 18.048 105.245 18.048C104.605 18.037 103.984 18.258 103.499 18.669C103.006 19.083 102.668 19.639 102.482 20.339H108.074L108.085 20.337Z" fill="#63666A"/>
</g>
<defs>
<clipPath id="clip0_462_5463">
<rect width="120" height="40" fill="white"/>
</clipPath>
</defs>
</svg>
