<svg width="120" height="40" viewBox="0 0 120 40" fill="none" xmlns="http://www.w3.org/2000/svg">
<rect width="120" height="40" fill="white"/>
<path d="M102.891 15.8801C102.644 15.8801 102.404 15.9299 102.192 16.0472L95.4819 19.8366C95.0477 20.0812 94.7837 20.5434 94.7837 21.0348V28.6C94.7837 29.0913 95.0477 29.5527 95.4819 29.798L97.2344 30.7856C98.0858 31.1961 98.3999 31.1895 98.7874 31.1895C100.048 31.1895 100.768 30.4415 100.768 29.1414V21.6779C100.768 21.5723 100.674 21.4968 100.568 21.4968H99.7276C99.6199 21.4968 99.5282 21.5743 99.5282 21.6779V29.1453C99.5282 29.7216 98.9144 30.3013 97.9183 29.8141L96.0966 28.7693C96.0322 28.735 95.9825 28.6725 95.9825 28.6022V21.0369C95.9825 20.9653 96.0316 20.8921 96.0966 20.8559L102.793 17.0801C102.856 17.0448 102.93 17.0448 102.992 17.0801L109.689 20.8559C109.753 20.8933 109.803 20.963 109.803 21.0369V28.6022C109.803 28.6744 109.766 28.7484 109.703 28.7832L102.993 32.559C102.933 32.5925 102.854 32.5925 102.793 32.559L101.069 31.556C101.018 31.5266 100.948 31.5289 100.898 31.556C100.422 31.8198 100.333 31.8503 99.8868 32.0018C99.7769 32.0391 99.6096 32.0974 99.9439 32.2806L102.195 33.5779C102.409 33.6991 102.648 33.759 102.893 33.759C103.142 33.759 103.377 33.7009 103.591 33.5779L110.302 29.8021C110.736 29.555 111 29.0953 111 28.6041V21.0389C111 20.5474 110.736 20.0862 110.302 19.8407L103.591 16.0513C103.381 15.934 103.14 15.8842 102.893 15.8842L102.891 15.8801ZM104.686 21.286C102.775 21.286 101.637 22.0812 101.637 23.4035C101.637 24.8364 102.766 25.2322 104.6 25.4096C106.795 25.6196 106.966 25.9347 106.966 26.357C106.966 27.0895 106.368 27.4018 104.957 27.4018C103.183 27.4018 102.793 26.9689 102.663 26.1045C102.647 26.0119 102.575 25.9374 102.478 25.9374H101.606C101.554 25.9385 101.504 25.9594 101.467 25.9958C101.43 26.0321 101.408 26.081 101.407 26.1324C101.407 27.2367 102.021 28.5425 104.955 28.5425C107.078 28.5425 108.303 27.7293 108.303 26.2995C108.303 24.886 107.314 24.5039 105.254 24.2373C103.175 23.9662 102.974 23.8365 102.974 23.3596C102.974 22.9661 103.143 22.4398 104.684 22.4398C106.061 22.4398 106.57 22.7303 106.778 23.638C106.797 23.7232 106.874 23.7929 106.964 23.7929H107.835C107.888 23.7929 107.94 23.7608 107.977 23.7232C108.014 23.6831 108.04 23.638 108.034 23.5838C107.9 22.0204 106.834 21.285 104.686 21.285L104.686 21.286Z" fill="#83CD29"/>
<path d="M63.4394 5.96278C63.3644 5.96291 63.2907 5.98213 63.2257 6.01854C63.161 6.05558 63.1072 6.10847 63.0697 6.17199C63.0323 6.23552 63.0124 6.3075 63.012 6.38083V17.0387C63.012 17.1433 62.9621 17.237 62.8694 17.2895C62.824 17.3154 62.7724 17.329 62.7198 17.329C62.6673 17.329 62.6157 17.3154 62.5702 17.2895L60.7893 16.2865C60.6594 16.213 60.5119 16.1743 60.3619 16.1743C60.2118 16.1743 60.0643 16.213 59.9344 16.2865L52.8252 20.2987C52.5594 20.4486 52.3974 20.7371 52.3974 21.0371V29.0618C52.3972 29.2086 52.4367 29.3529 52.5117 29.4801C52.5868 29.6073 52.6948 29.7129 52.825 29.7861L59.9344 33.7986C60.0643 33.8723 60.2117 33.9111 60.3619 33.9111C60.512 33.9111 60.6594 33.8723 60.7893 33.7986L67.8987 29.7861C68.0289 29.7129 68.1369 29.6073 68.212 29.4801C68.287 29.3529 68.3265 29.2086 68.3262 29.0618V9.05567C68.3262 8.75128 68.1563 8.46567 67.8847 8.31735L63.6532 6.00441C63.5867 5.9682 63.513 5.962 63.4394 5.96278ZM17.705 15.9798C17.5694 15.9852 17.4421 16.0082 17.3203 16.0774L10.211 20.0896C10.0808 20.1628 9.97266 20.2683 9.89761 20.3955C9.82256 20.5228 9.78326 20.6671 9.78369 20.814L9.79815 31.5836C9.79815 31.7335 9.87736 31.8725 10.012 31.9457C10.1441 32.0232 10.3078 32.0232 10.4393 31.9457L14.6565 29.5772C14.9239 29.4223 15.0981 29.152 15.0981 28.853V23.8234C15.0981 23.5233 15.2595 23.2483 15.5258 23.0992L17.3211 22.0823C17.4508 22.0085 17.5983 21.97 17.7484 21.9708C17.8985 21.9699 18.0462 22.0084 18.1759 22.0823L19.9704 23.0987C20.2363 23.2478 20.3977 23.5231 20.3977 23.8229V28.8523C20.3977 29.1516 20.5759 29.4235 20.8393 29.5764L25.0565 31.945C25.1891 32.0224 25.3525 32.0224 25.4838 31.945C25.6145 31.8714 25.6976 31.7325 25.6976 31.5829L25.7119 20.8136C25.7127 20.6667 25.6736 20.5221 25.5985 20.3949C25.5234 20.2676 25.4151 20.1621 25.2846 20.0892L18.1753 16.0772C18.0551 16.0082 17.9272 15.985 17.7906 15.9796H17.7054L17.705 15.9798ZM81.5905 16.0774C81.4404 16.077 81.2929 16.1154 81.163 16.1889L74.0535 20.2013C73.7882 20.3514 73.6258 20.6258 73.6258 20.9255V28.9502C73.6258 29.2519 73.7997 29.5253 74.0674 29.6744L81.1198 33.6052C81.3802 33.7504 81.698 33.7614 81.9604 33.6187L86.2346 31.292C86.3703 31.2184 86.462 31.081 86.4624 30.9299C86.4628 30.7789 86.3825 30.643 86.2485 30.5678L79.0961 26.5554C78.9622 26.4806 78.8683 26.3294 78.8683 26.1792V23.6699C78.8683 23.52 78.9634 23.3825 79.0961 23.3078L81.3186 22.0538C81.4509 21.9791 81.6133 21.9791 81.7463 22.0538L83.9699 23.3078C84.035 23.3444 84.0891 23.3971 84.1266 23.4607C84.1641 23.5243 84.1838 23.5965 84.1836 23.6699V25.6482C84.1834 25.7216 84.203 25.7938 84.2405 25.8574C84.2781 25.921 84.3321 25.9737 84.3972 26.0103C84.5305 26.0854 84.6919 26.0858 84.8249 26.0103L89.0847 23.5866C89.3491 23.4364 89.5124 23.1612 89.5124 22.8624V20.9261C89.5124 20.7793 89.4729 20.6351 89.3979 20.5079C89.3229 20.3808 89.2149 20.2752 89.0849 20.2017L82.0182 16.1893C81.8883 16.1157 81.7408 16.0773 81.5907 16.0777L81.5905 16.0774ZM60.3332 22.0683C60.373 22.0682 60.4122 22.0777 60.4473 22.096L62.8835 23.4753C62.9496 23.5127 62.9976 23.5818 62.9976 23.6563V26.4148C62.9976 26.4897 62.95 26.5587 62.8835 26.5959L60.4473 27.9751C60.381 28.0119 60.3 28.0119 60.2334 27.9751L57.7972 26.5959C57.7309 26.5585 57.6832 26.4894 57.6832 26.4148V23.6559C57.6832 23.5812 57.7311 23.5127 57.7972 23.4749L60.2334 22.0958C60.2667 22.0771 60.296 22.0683 60.3332 22.0683Z" fill="#404137"/>
<path d="M39.0622 16.0354C38.912 16.0351 38.7645 16.0736 38.6344 16.1469L31.525 20.1454C31.2592 20.2953 31.0977 20.584 31.0977 20.8837V28.9084C31.0973 29.0553 31.1366 29.1996 31.2116 29.3268C31.2867 29.454 31.3948 29.5595 31.525 29.6326L38.6344 33.6451C38.7643 33.7188 38.9117 33.7576 39.0619 33.7576C39.212 33.7576 39.3594 33.7188 39.4893 33.6451L46.5987 29.6326C46.7289 29.5593 46.8369 29.4538 46.912 29.3266C46.9871 29.1994 47.0265 29.0551 47.0263 28.9082V20.8835C47.0263 20.5834 46.8647 20.2949 46.5985 20.1452L39.4891 16.1467C39.3592 16.073 39.2115 16.0345 39.0614 16.0352L39.0622 16.0354ZM81.5767 23.1965C81.5484 23.1965 81.5169 23.1965 81.4912 23.21L80.1235 23.9904C80.098 24.0042 80.0766 24.0243 80.0616 24.0488C80.0466 24.0732 80.0384 24.1011 80.0379 24.1296V25.6622C80.0379 25.7199 80.0722 25.7725 80.1235 25.8016L81.4912 26.5678C81.5147 26.582 81.5417 26.5896 81.5694 26.5896C81.597 26.5896 81.6241 26.582 81.6476 26.5678L83.0153 25.8016C83.066 25.7731 83.1009 25.7199 83.1009 25.6622V24.1296C83.1009 24.0719 83.0662 24.0192 83.0153 23.9902L81.6476 23.2098C81.6222 23.1951 81.6048 23.1963 81.5763 23.1963L81.5767 23.1965Z" fill="#83CD29"/>
</svg>
