<svg width="94" height="40" viewBox="0 0 94 40" fill="none" xmlns="http://www.w3.org/2000/svg">
<rect width="94" height="40" fill="white"/>
<g clip-path="url(#clip0_462_5513)">
<path d="M30.5708 19.9899C30.5708 23.7275 33.0005 26.3335 36.3675 26.3335C39.7344 26.3335 42.1641 23.7275 42.1641 19.9899C42.1641 16.2523 39.7344 13.6462 36.3675 13.6462C33.0005 13.6462 30.5708 16.2523 30.5708 19.9899ZM39.9426 19.9899C39.9426 22.6645 38.4674 24.3962 36.3675 24.3962C34.2675 24.3962 32.7923 22.6645 32.7923 19.9899C32.7923 17.3153 34.2675 15.5836 36.3675 15.5836C38.4674 15.5836 39.9426 17.3153 39.9426 19.9899Z" fill="black"/>
<path d="M48.4201 26.3336C50.9713 26.3336 52.4291 24.2076 52.4291 21.653C52.4291 19.0984 50.9713 16.9724 48.4201 16.9724C47.2399 16.9724 46.3722 17.4353 45.7994 18.104V17.1439H43.7168V29.2311H45.7994V25.202C46.3722 25.8707 47.2399 26.3336 48.4201 26.3336ZM45.7474 21.3958C45.7474 19.6985 46.7193 18.7726 48.0035 18.7726C49.5135 18.7726 50.3291 19.9385 50.3291 21.653C50.3291 23.3675 49.5135 24.5334 48.0035 24.5334C46.7193 24.5334 45.7474 23.5904 45.7474 21.9273V21.3958Z" fill="black"/>
<path d="M58.0652 26.3336C59.8875 26.3336 61.328 25.3906 61.9702 23.8133L60.1826 23.1446C59.9049 24.0704 59.0892 24.5848 58.0652 24.5848C56.7289 24.5848 55.7917 23.6418 55.6355 22.0988H62.0222V21.413C62.0222 18.9441 60.6165 16.9724 57.9785 16.9724C55.3405 16.9724 53.6396 19.0127 53.6396 21.653C53.6396 24.4305 55.462 26.3336 58.0652 26.3336ZM57.9611 18.7041C59.2801 18.7041 59.9049 19.5613 59.9223 20.5557H55.7396C56.052 19.3384 56.8851 18.7041 57.9611 18.7041Z" fill="black"/>
<path d="M63.585 26.145H65.6676V20.8643C65.6676 19.5785 66.6221 18.8927 67.5593 18.8927C68.7048 18.8927 69.156 19.6985 69.156 20.8129V26.145H71.2386V20.2128C71.2386 18.2754 70.0932 16.9724 68.1841 16.9724C67.0039 16.9724 66.1883 17.5039 65.6676 18.104V17.1439H63.585V26.145Z" fill="black"/>
<path d="M77.3383 13.8348L72.6177 26.1449H74.8218L75.8805 23.3332H81.2606L82.3366 26.1449H84.5754L79.8548 13.8348H77.3383ZM78.5532 16.2694L80.5317 21.4129H76.6094L78.5532 16.2694Z" fill="black"/>
<path d="M88.1507 13.8706H85.9292V26.1807H88.1507V13.8706Z" fill="black"/>
<path d="M25.4813 18.356C26.0063 16.7994 25.8255 15.0942 24.9859 13.6783C23.7233 11.5066 21.1851 10.3893 18.7062 10.9151C17.6034 9.6878 16.019 8.98986 14.358 8.99986C11.8241 8.99415 9.57589 10.6058 8.79635 12.9875C7.16858 13.3168 5.76352 14.3234 4.94132 15.75C3.66932 17.916 3.9593 20.6463 5.65867 22.5037C5.13367 24.0603 5.31446 25.7655 6.15402 27.1814C7.41661 29.3531 9.95482 30.4704 12.4337 29.9446C13.5358 31.1719 15.1209 31.8699 16.7819 31.8591C19.3173 31.8656 21.5662 30.2525 22.3457 27.8687C23.9735 27.5393 25.3786 26.5328 26.2008 25.1062C27.4713 22.9402 27.1806 20.212 25.482 18.3546L25.4813 18.356ZM16.7834 30.3654C15.7688 30.3668 14.7861 30.0161 14.0073 29.3738C14.0427 29.3553 14.1042 29.3217 14.1439 29.2974L18.7518 26.6685C18.9875 26.5363 19.1321 26.2885 19.1307 26.0206V19.6033L21.0781 20.7142C21.0991 20.7242 21.1128 20.7442 21.1157 20.767V26.0813C21.1128 28.4444 19.1755 30.3604 16.7834 30.3654ZM7.46651 26.4342C6.95814 25.5669 6.77519 24.5504 6.94947 23.5638C6.98345 23.5838 7.04347 23.6203 7.08614 23.6445L11.694 26.2734C11.9275 26.4085 12.2168 26.4085 12.4511 26.2734L18.0764 23.0645V25.2862C18.0778 25.309 18.067 25.3312 18.0489 25.3455L13.3912 28.0022C11.3165 29.1824 8.66691 28.4809 7.46723 26.4342H7.46651ZM6.25381 16.4979C6.76 15.6293 7.55907 14.9649 8.51072 14.6199C8.51072 14.6591 8.50855 14.7284 8.50855 14.777V20.0355C8.5071 20.3027 8.65173 20.5506 8.88675 20.6827L14.512 23.891L12.5646 25.0019C12.5451 25.0147 12.5205 25.0169 12.4988 25.0076L7.84037 22.3487C5.77003 21.1642 5.05991 18.5475 6.25309 16.4987L6.25381 16.4979ZM22.2539 20.1763L16.6286 16.9673L18.576 15.8571C18.5956 15.8443 18.6202 15.8421 18.6418 15.8514L23.3003 18.5082C25.3742 19.6919 26.0851 22.313 24.8868 24.3618C24.3799 25.229 23.5816 25.8934 22.6307 26.2392V20.8235C22.6328 20.5563 22.4889 20.3091 22.2546 20.1763H22.2539ZM24.1919 17.2945C24.1579 17.2738 24.0979 17.238 24.0552 17.2137L19.4474 14.5848C19.2138 14.4498 18.9246 14.4498 18.6903 14.5848L13.065 17.7938V15.5721C13.0636 15.5493 13.0744 15.5271 13.0925 15.5128L17.7502 12.8582C19.8249 11.6759 22.4774 12.3796 23.6734 14.4298C24.1789 15.2956 24.3618 16.3093 24.1905 17.2945H24.1919ZM12.0064 21.2542L10.0582 20.1434C10.0373 20.1334 10.0235 20.1134 10.0206 20.0905V14.7763C10.0221 12.4103 11.9651 10.4929 14.3602 10.4943C15.3733 10.4943 16.3538 10.8458 17.1327 11.4859C17.0972 11.5045 17.0365 11.538 16.996 11.5623L12.3882 14.1912C12.1524 14.3234 12.0078 14.5706 12.0092 14.8384L12.0064 21.2528V21.2542ZM13.0643 19.0011L15.57 17.5716L18.0756 19.0004V21.8586L15.57 23.2874L13.0643 21.8586V19.0011Z" fill="black"/>
</g>
<defs>
<clipPath id="clip0_462_5513">
<rect width="85.33" height="22.86" fill="white" transform="translate(4 9)"/>
</clipPath>
</defs>
</svg>
