<?xml version="1.0" encoding="UTF-8" standalone="no"?>
<!DOCTYPE svg PUBLIC "-//W3C//DTD SVG 1.1//EN" "http://www.w3.org/Graphics/SVG/1.1/DTD/svg11.dtd">
<!-- Created with Vectornator (http://vectornator.io/) -->
<svg height="100%" stroke-miterlimit="10" style="fill-rule:nonzero;clip-rule:evenodd;stroke-linecap:round;stroke-linejoin:round;" version="1.1" viewBox="0 0 1080 194" width="100%" xml:space="preserve" xmlns="http://www.w3.org/2000/svg" xmlns:xlink="http://www.w3.org/1999/xlink">
<defs/>
<clipPath id="ArtboardFrame">
<rect height="194" width="1080" x="0" y="0"/>
</clipPath>
<g clip-path="url(#ArtboardFrame)" id="Layer-1">
<path d="M903.851 719.114C900.351 721.314 899.251 722.814 902.351 721.114C904.551 719.814 908.151 717.114 907.551 717.014C907.251 717.014 905.551 718.014 903.851 719.114ZM891.951 726.614C890.151 728.014 890.151 728.114 892.351 727.014C893.551 726.414 894.551 725.714 894.551 725.514C894.551 724.714 894.051 724.914 891.951 726.614ZM886.951 729.614C885.151 731.014 885.151 731.114 887.351 730.014C888.551 729.414 889.551 728.714 889.551 728.514C889.551 727.714 889.051 727.914 886.951 729.614ZM879.351 733.614C875.551 735.614 875.751 736.414 879.551 734.514C881.251 733.614 882.551 732.714 882.551 732.514C882.551 731.814 882.451 731.914 879.351 733.614Z" fill="#000000" fill-rule="nonzero" opacity="1" stroke="none"/>
<g opacity="1">
<path d="M111.406 20.9508C111.076 20.9808 110.026 21.0859 109.08 21.1609C87.2755 23.1268 66.8513 34.8921 53.9155 52.9753C46.7122 63.0298 42.1051 74.435 40.3643 86.5155C39.749 90.7324 39.674 91.9779 39.674 97.6955C39.674 103.413 39.749 104.659 40.3643 108.876C44.5362 137.704 65.0505 161.925 92.8731 170.899C97.8553 172.504 103.108 173.6 109.08 174.26C111.406 174.515 121.461 174.515 123.787 174.26C134.097 173.12 142.831 170.568 151.445 166.171C152.765 165.496 153.02 165.316 152.84 165.166C152.72 165.076 147.093 157.528 140.34 148.403L128.064 131.821L112.682 109.056C104.218 96.54 97.255 86.3054 97.195 86.3054C97.135 86.2904 97.075 96.4049 97.0449 108.756C96.9999 130.38 96.9849 131.251 96.7148 131.761C96.3246 132.496 96.0245 132.796 95.3942 133.127C94.914 133.367 94.4938 133.412 92.2278 133.412L89.6316 133.412L88.9413 132.976C88.4911 132.691 88.1609 132.316 87.9358 131.881L87.6207 131.206L87.6507 101.117L87.6957 71.0135L88.1609 70.4282C88.401 70.113 88.9113 69.7079 89.2714 69.5128C89.8867 69.2126 90.1268 69.1826 92.723 69.1826C95.7844 69.1826 96.2946 69.3027 97.09 70.1731C97.3151 70.4132 105.644 82.9589 115.608 98.0707C125.573 113.183 139.199 133.817 145.892 143.946L158.048 162.36L158.663 161.955C164.11 158.413 169.873 153.371 174.435 148.118C184.144 136.968 190.402 123.372 192.503 108.876C193.118 104.659 193.193 103.413 193.193 97.6955C193.193 91.9779 193.118 90.7324 192.503 86.5155C188.331 57.6874 167.817 33.4665 139.994 24.4924C135.087 22.9017 129.865 21.8062 124.012 21.1459C122.571 20.9958 112.652 20.8308 111.406 20.9508ZM142.831 67.3818C143.551 67.742 144.136 68.4323 144.346 69.1526C144.466 69.5428 144.496 77.8866 144.466 96.6901L144.421 123.672L139.664 116.379L134.892 109.086L134.892 89.4718C134.892 76.7911 134.952 69.6628 135.042 69.3177C135.282 68.4773 135.807 67.817 136.528 67.4268C137.143 67.1117 137.368 67.0817 139.724 67.0817C141.945 67.0817 142.335 67.1117 142.831 67.3818Z" fill="#000000" fill-rule="nonzero" opacity="1" stroke="none"/>
<g opacity="1">
<path d="M336.243 141.456L330.113 137.917L330.113 137.917L398.404 19.6376L398.404 19.6376L404.534 23.1769L404.534 23.1769L336.243 141.456L336.243 141.456Z" fill="#e535ab" fill-rule="nonzero" opacity="1" stroke="none"/>
<path d="M328.71 128.468L465.291 128.468L465.291 128.468L465.291 135.546L465.291 135.546L328.71 135.546L328.71 135.546L328.71 128.468L328.71 128.468Z" fill="#e535ab" fill-rule="nonzero" opacity="1" stroke="none"/>
<path d="M399.729 171.888L331.412 132.444L331.412 132.444L334.951 126.314L334.951 126.314L403.268 165.758L403.268 165.758L399.729 171.888L399.729 171.888Z" fill="#e535ab" fill-rule="nonzero" opacity="1" stroke="none"/>
<path d="M459.075 69.0878L390.759 29.6442L390.759 29.6442L394.298 23.5142L394.298 23.5142L462.614 62.9578L462.614 62.9578L459.075 69.0878L459.075 69.0878Z" fill="#e535ab" fill-rule="nonzero" opacity="1" stroke="none"/>
<path d="M334.97 69.0608L331.431 62.9308L331.431 62.9308L399.747 23.4872L399.747 23.4872L403.287 29.6172L403.287 29.6172L334.97 69.0608L334.97 69.0608Z" fill="#e535ab" fill-rule="nonzero" opacity="1" stroke="none"/>
<path d="M457.815 141.458L389.525 23.1782L389.525 23.1782L395.655 19.6389L395.655 19.6389L463.945 137.919L463.945 137.919L457.815 141.458L457.815 141.458Z" fill="#e535ab" fill-rule="nonzero" opacity="1" stroke="none"/>
<path d="M334.125 58.2369L341.204 58.2369L341.204 58.2369L341.204 137.124L341.204 137.124L334.125 137.124L334.125 137.124L334.125 58.2369L334.125 58.2369Z" fill="#e535ab" fill-rule="nonzero" opacity="1" stroke="none"/>
<path d="M452.84 58.2369L459.918 58.2369L459.918 58.2369L459.918 137.124L459.918 137.124L452.84 137.124L452.84 137.124L452.84 58.2369L452.84 58.2369Z" fill="#e535ab" fill-rule="nonzero" opacity="1" stroke="none"/>
<path d="M398.523 168.892L395.432 163.537L395.432 163.537L454.849 129.232L454.849 129.232L457.94 134.587L457.94 134.587L398.523 168.892L398.523 168.892Z" fill="#e535ab" fill-rule="nonzero" opacity="1" stroke="none"/>
<path d="M469.299 139.427C465.206 146.548 456.08 148.978 448.959 144.885C441.838 140.791 439.408 131.666 443.501 124.545C447.595 117.424 456.72 114.993 463.841 119.087C471.005 123.223 473.436 132.306 469.299 139.427" fill="#e535ab" fill-rule="nonzero" opacity="1" stroke="none"/>
<path d="M350.5 70.8162C346.406 77.9374 337.281 80.3679 330.159 76.2743C323.038 72.1807 320.608 63.0554 324.701 55.9342C328.795 48.813 337.92 46.3825 345.041 50.4761C352.163 54.6123 354.593 63.695 350.5 70.8162" fill="#e535ab" fill-rule="nonzero" opacity="1" stroke="none"/>
<path d="M324.744 139.427C320.65 132.306 323.081 123.223 330.202 119.087C337.323 114.993 346.406 117.424 350.542 124.545C354.636 131.666 352.205 140.749 345.084 144.885C337.92 148.978 328.837 146.548 324.744 139.427" fill="#e535ab" fill-rule="nonzero" opacity="1" stroke="none"/>
<path d="M443.544 70.8162C439.45 63.695 441.881 54.6123 449.002 50.4761C456.123 46.3825 465.206 48.813 469.342 55.9342C473.436 63.0554 471.005 72.1381 463.884 76.2743C456.763 80.3679 447.637 77.9374 443.544 70.8162" fill="#e535ab" fill-rule="nonzero" opacity="1" stroke="none"/>
<path d="M397.022 181.173C388.792 181.173 382.14 174.521 382.14 166.291C382.14 158.061 388.792 151.409 397.022 151.409C405.252 151.409 411.904 158.061 411.904 166.291C411.904 174.478 405.252 181.173 397.022 181.173" fill="#e535ab" fill-rule="nonzero" opacity="1" stroke="none"/>
<path d="M397.022 43.9519C388.792 43.9519 382.14 37.2998 382.14 29.0699C382.14 20.8401 388.792 14.1879 397.022 14.1879C405.252 14.1879 411.904 20.8401 411.904 29.0699C411.904 37.2998 405.252 43.9519 397.022 43.9519" fill="#e535ab" fill-rule="nonzero" opacity="1" stroke="none"/>
</g>
<g opacity="1">
<path d="M599.465 103.229L587.743 63.3749L624.471 11.0178L695.583 103.229L599.465 103.229Z" fill="#468bcc" fill-rule="nonzero" opacity="1" stroke="none"/>
<path d="M587.743 63.3749L624.471 11.0178L677.61 27.4282L695.583 103.229L587.743 63.3749Z" fill="#4ba8ff" fill-rule="nonzero" opacity="1" stroke="none"/>
<path d="M624.471 11.0178L677.61 27.4282L730.748 11.0178L695.583 103.229L624.471 11.0178Z" fill="#468bcc" fill-rule="nonzero" opacity="1" stroke="none"/>
<path d="M677.61 27.4282L730.748 11.0178L767.476 63.3749L695.583 103.229L677.61 27.4282Z" fill="#468bcc" fill-rule="nonzero" opacity="1" stroke="none"/>
<path d="M730.748 11.0178L767.476 63.3749L755.754 103.229L695.583 103.229L730.748 11.0178Z" fill="#4ba8ff" fill-rule="nonzero" opacity="1" stroke="none"/>
<path d="M767.476 63.3749L755.754 103.229L677.61 171.996L695.583 103.229L767.476 63.3749Z" fill="#468bcc" fill-rule="nonzero" opacity="1" stroke="none"/>
<path d="M755.754 103.229L677.61 171.996L599.465 103.229L695.583 103.229L755.754 103.229Z" fill="#468bcc" fill-rule="nonzero" opacity="1" stroke="none"/>
<path d="M677.61 171.996L599.465 103.229L587.743 63.3749L695.583 103.229L677.61 171.996Z" fill="#468bcc" fill-rule="nonzero" opacity="1" stroke="none"/>
<path d="M599.465 103.229L587.743 63.3749L695.583 103.229L599.465 103.229Z" fill="#468bcc" fill-rule="nonzero" opacity="1" stroke="none"/>
<path d="M642.444 122.765L655.729 131.361L634.63 147.771L642.444 122.765Z" fill="#ffffff" fill-rule="nonzero" opacity="1" stroke="none"/>
<path d="M641.848 122.579L634.033 147.585C633.851 148.169 634.53 148.641 635.014 148.265L656.113 131.854C656.453 131.59 656.43 131.07 656.069 130.836L642.784 122.24C642.437 122.015 641.971 122.184 641.848 122.579ZM642.796 123.737L654.65 131.408L635.822 146.052L642.796 123.737Z" fill="#082744" fill-rule="nonzero" opacity="1" stroke="none"/>
<path d="M712.775 122.765L699.49 131.361L720.589 147.771L712.775 122.765Z" fill="#ffffff" fill-rule="nonzero" opacity="1" stroke="none"/>
<path d="M712.435 122.24L699.151 130.836C698.789 131.07 698.767 131.59 699.106 131.854L720.205 148.265C720.689 148.641 721.369 148.169 721.186 147.585L713.371 122.579C713.248 122.184 712.782 122.015 712.435 122.24ZM712.423 123.737L719.397 146.052L700.569 131.408L712.423 123.737Z" fill="#082744" fill-rule="nonzero" opacity="1" stroke="none"/>
<path d="M634.63 53.9975L660.418 22.1144L694.801 22.1144L677.61 77.441L634.63 53.9975Z" fill="#4ba8ff" fill-rule="nonzero" opacity="1" stroke="none"/>
<path d="M660.418 22.1144L694.801 22.1144L720.589 53.9975L677.61 77.441L660.418 22.1144Z" fill="#468bcc" fill-rule="nonzero" opacity="1" stroke="none"/>
<path d="M694.801 22.1144L720.589 53.9975L720.589 120.421L677.61 77.441L694.801 22.1144Z" fill="#166ebf" fill-rule="nonzero" opacity="1" stroke="none"/>
<path d="M720.589 53.9975L720.589 120.421L694.801 137.613L677.61 77.441L720.589 53.9975Z" fill="#0b457f" fill-rule="nonzero" opacity="1" stroke="none"/>
<path d="M720.589 120.421L694.801 137.613L677.61 183.718L677.61 77.441L720.589 120.421Z" fill="#0c3861" fill-rule="nonzero" opacity="1" stroke="none"/>
<path d="M694.801 137.613L694.801 175.122L677.61 183.718L660.418 137.613L677.61 77.441L694.801 137.613Z" fill="#166ebf" fill-rule="nonzero" opacity="1" stroke="none"/>
<path d="M677.61 183.718L660.418 175.122L660.418 137.613L634.63 120.421L677.61 77.441L677.61 183.718Z" fill="#4ba8ff" fill-rule="nonzero" opacity="1" stroke="none"/>
<path d="M660.418 137.613L634.63 120.421L634.63 53.9975L677.61 77.441L660.418 137.613Z" fill="#166ebf" fill-rule="nonzero" opacity="1" stroke="none"/>
<path d="M634.63 120.421L634.63 53.9975L677.61 77.441L634.63 120.421Z" fill="#468bcc" fill-rule="nonzero" opacity="1" stroke="none"/>
<path d="M694.801 21.4892L660.418 21.4892C660.229 21.4892 660.05 21.5745 659.932 21.7212L634.144 53.6043C634.054 53.7156 634.005 53.8544 634.005 53.9975L634.005 120.421L634.006 120.457C634.017 120.652 634.119 120.832 634.283 120.941L659.793 137.947L659.793 175.122C659.793 175.359 659.926 175.575 660.138 175.681L677.33 184.277C677.506 184.365 677.713 184.365 677.889 184.277L695.081 175.681L695.111 175.665C695.305 175.555 695.427 175.348 695.427 175.122L695.427 137.947L720.936 120.941C721.11 120.825 721.214 120.63 721.214 120.421L721.214 53.9975C721.214 53.8544 721.165 53.7156 721.075 53.6043L695.288 21.7212C695.169 21.5745 694.99 21.4892 694.801 21.4892ZM694.503 22.7395L719.964 54.2188L719.964 120.086L694.455 137.092L694.425 137.114C694.269 137.231 694.176 137.416 694.176 137.613L694.176 174.736L677.61 183.019L661.043 174.736L661.043 137.613L661.042 137.576C661.03 137.381 660.928 137.201 660.764 137.092L635.255 120.086L635.255 54.2186L660.716 22.7395L694.503 22.7395Z" fill="#082744" fill-rule="nonzero" opacity="1" stroke="none"/>
<path d="M644.007 71.9708L664.325 78.2224L644.007 86.0369L644.007 71.9708Z" fill="#ffffff" fill-rule="nonzero" opacity="1" stroke="none"/>
<path d="M711.212 71.9708L690.894 78.2224L711.212 86.0369L711.212 71.9708Z" fill="#ffffff" fill-rule="nonzero" opacity="1" stroke="none"/>
</g>
<g opacity="1">
<path d="M570.048 74.755L551.514 56.5802C550.818 55.9084 550.026 55.5725 549.138 55.5725C548.179 55.5725 547.405 55.8664 546.817 56.4542C546.229 57.0421 545.935 57.8039 545.935 58.7396C545.935 59.2195 546.013 59.6393 546.169 59.9992C546.325 60.3591 546.559 60.695 546.871 61.0069L554.609 68.4928L561.303 74.2872L552.989 73.9273L506.742 73.9273C505.807 73.9273 505.033 74.2272 504.421 74.827C503.809 75.4268 503.503 76.2066 503.503 77.1663C503.503 78.1021 503.809 78.8698 504.421 79.4697C505.033 80.0695 505.807 80.3694 506.742 80.3694L552.989 80.3694L561.303 80.0455L554.609 85.8039L546.871 93.3257C546.559 93.6136 546.325 93.9435 546.169 94.3154C546.013 94.6873 545.935 95.1012 545.935 95.5571C545.935 96.4928 546.229 97.2546 546.817 97.8424C547.405 98.4303 548.179 98.7242 549.138 98.7242C550.026 98.7242 550.818 98.3883 551.514 97.7165L570.048 79.5776C570.768 78.9058 571.134 78.1021 571.146 77.1663C571.158 76.2306 570.792 75.4268 570.048 74.755ZM504.547 120.642L523.154 138.781C523.825 139.453 524.617 139.788 525.529 139.788C526.489 139.788 527.256 139.495 527.832 138.907C528.408 138.319 528.696 137.557 528.696 136.621C528.696 136.165 528.624 135.752 528.48 135.38C528.336 135.008 528.108 134.678 527.796 134.39L520.059 126.904L513.328 121.11L521.642 121.434L567.889 121.434C568.825 121.434 569.598 121.134 570.21 120.534C570.822 119.934 571.128 119.166 571.128 118.231C571.128 117.295 570.822 116.521 570.21 115.909C569.598 115.297 568.825 114.992 567.889 114.992L521.642 114.992L513.328 115.351L520.059 109.557L527.796 102.071C528.108 101.759 528.336 101.423 528.48 101.064C528.624 100.704 528.696 100.296 528.696 99.8399C528.696 98.9041 528.408 98.1363 527.832 97.5365C527.256 96.9367 526.489 96.6368 525.529 96.6368C524.617 96.6368 523.825 96.9847 523.154 97.6805L504.547 115.819C503.851 116.491 503.497 117.289 503.485 118.213C503.473 119.136 503.827 119.946 504.547 120.642Z" fill="#000000" fill-rule="nonzero" opacity="1" stroke="none"/>
</g>
<g opacity="1">
<path d="M289.46 74.755L270.926 56.5802C270.23 55.9084 269.438 55.5725 268.55 55.5725C267.591 55.5725 266.817 55.8664 266.229 56.4542C265.641 57.0421 265.347 57.8039 265.347 58.7396C265.347 59.2195 265.425 59.6393 265.581 59.9992C265.737 60.3591 265.971 60.695 266.283 61.0069L274.021 68.4928L280.715 74.2872L272.401 73.9273L226.154 73.9273C225.219 73.9273 224.445 74.2272 223.833 74.827C223.221 75.4268 222.915 76.2066 222.915 77.1663C222.915 78.1021 223.221 78.8698 223.833 79.4697C224.445 80.0695 225.219 80.3694 226.154 80.3694L272.401 80.3694L280.715 80.0455L274.021 85.8039L266.283 93.3257C265.971 93.6136 265.737 93.9435 265.581 94.3154C265.425 94.6873 265.347 95.1012 265.347 95.5571C265.347 96.4928 265.641 97.2546 266.229 97.8424C266.817 98.4303 267.591 98.7242 268.55 98.7242C269.438 98.7242 270.23 98.3883 270.926 97.7165L289.46 79.5776C290.18 78.9058 290.546 78.1021 290.558 77.1663C290.57 76.2306 290.204 75.4268 289.46 74.755ZM223.959 120.642L242.566 138.781C243.238 139.453 244.029 139.788 244.941 139.788C245.901 139.788 246.669 139.495 247.244 138.907C247.82 138.319 248.108 137.557 248.108 136.621C248.108 136.165 248.036 135.752 247.892 135.38C247.748 135.008 247.52 134.678 247.208 134.39L239.471 126.904L232.741 121.11L241.054 121.434L287.301 121.434C288.237 121.434 289.01 121.134 289.622 120.534C290.234 119.934 290.54 119.166 290.54 118.231C290.54 117.295 290.234 116.521 289.622 115.909C289.01 115.297 288.237 114.992 287.301 114.992L241.054 114.992L232.741 115.351L239.471 109.557L247.208 102.071C247.52 101.759 247.748 101.423 247.892 101.064C248.036 100.704 248.108 100.296 248.108 99.8399C248.108 98.9041 247.82 98.1363 247.244 97.5365C246.669 96.9367 245.901 96.6368 244.941 96.6368C244.029 96.6368 243.238 96.9847 242.566 97.6805L223.959 115.819C223.263 116.491 222.909 117.289 222.897 118.213C222.885 119.136 223.239 119.946 223.959 120.642Z" fill="#000000" fill-rule="nonzero" opacity="1" stroke="none"/>
</g>
<g opacity="1">
<path d="M850.636 74.755L832.102 56.5802C831.406 55.9084 830.614 55.5725 829.726 55.5725C828.766 55.5725 827.993 55.8664 827.405 56.4542C826.817 57.0421 826.523 57.8039 826.523 58.7396C826.523 59.2195 826.601 59.6393 826.757 59.9992C826.913 60.3591 827.147 60.695 827.459 61.0069L835.197 68.4928L841.891 74.2872L833.577 73.9273L787.33 73.9273C786.395 73.9273 785.621 74.2272 785.009 74.827C784.397 75.4268 784.091 76.2066 784.091 77.1663C784.091 78.1021 784.397 78.8698 785.009 79.4697C785.621 80.0695 786.395 80.3694 787.33 80.3694L833.577 80.3694L841.891 80.0455L835.197 85.8039L827.459 93.3257C827.147 93.6136 826.913 93.9435 826.757 94.3154C826.601 94.6873 826.523 95.1012 826.523 95.5571C826.523 96.4928 826.817 97.2546 827.405 97.8424C827.993 98.4303 828.766 98.7242 829.726 98.7242C830.614 98.7242 831.406 98.3883 832.102 97.7165L850.636 79.5776C851.356 78.9058 851.722 78.1021 851.734 77.1663C851.746 76.2306 851.38 75.4268 850.636 74.755ZM785.135 120.642L803.742 138.781C804.413 139.453 805.205 139.788 806.117 139.788C807.077 139.788 807.844 139.495 808.42 138.907C808.996 138.319 809.284 137.557 809.284 136.621C809.284 136.165 809.212 135.752 809.068 135.38C808.924 135.008 808.696 134.678 808.384 134.39L800.646 126.904L793.916 121.11L802.23 121.434L848.477 121.434C849.413 121.434 850.186 121.134 850.798 120.534C851.41 119.934 851.716 119.166 851.716 118.231C851.716 117.295 851.41 116.521 850.798 115.909C850.186 115.297 849.413 114.992 848.477 114.992L802.23 114.992L793.916 115.351L800.646 109.557L808.384 102.071C808.696 101.759 808.924 101.423 809.068 101.064C809.212 100.704 809.284 100.296 809.284 99.8399C809.284 98.9041 808.996 98.1363 808.42 97.5365C807.844 96.9367 807.077 96.6368 806.117 96.6368C805.205 96.6368 804.413 96.9847 803.742 97.6805L785.135 115.819C784.439 116.491 784.085 117.289 784.073 118.213C784.061 119.136 784.415 119.946 785.135 120.642Z" fill="#000000" fill-rule="nonzero" opacity="1" stroke="none"/>
</g>
<g opacity="1">
<path d="M1040.11 116.343C1039.4 113.113 1036.47 109.346 1030.56 109.346C1029.35 109.346 1028.03 109.498 1026.53 109.81C1023.77 110.379 1021.42 110.655 1019.35 110.749C1035.45 83.3227 1045.9 45.2261 1035.55 32.0001C1021.91 14.5744 1003.55 11.972 993.827 11.972L992.911 11.9759C989.292 12.0343 985.536 12.4784 981.757 13.2966L967.799 16.3119C965.898 16.0742 963.962 15.9067 961.944 15.8716L961.827 15.8716L961.764 15.8716L961.172 15.8678C954.966 15.8678 949.306 17.1845 944.261 19.6583L939.387 17.7377C932.687 15.0964 922.604 11.9525 912.631 11.9525C912.07 11.9525 911.513 11.9642 910.952 11.9837C901.127 12.3382 892.689 16.0664 886.545 22.7632C878.878 31.1235 875.388 43.3523 876.179 59.1145C876.218 59.9287 885.754 140.536 912.787 140.536L912.884 140.536L913.134 140.532C916.644 140.446 919.99 139.036 923.119 136.336C925.507 138.128 928.596 139.188 931.475 139.609C933.376 140.057 936.797 140.692 940.895 140.692C945.897 140.692 950.408 139.667 954.296 137.816C954.292 141.245 954.273 145.585 954.234 151.132L954.23 151.424L954.25 151.716C954.627 157.245 955.582 162.227 957.019 166.135C961.114 177.273 968.185 183.408 976.931 183.408C977.293 183.408 977.663 183.397 978.037 183.373C985.229 182.929 992.518 178.889 997.531 172.574C1002.96 165.737 1004.21 158.522 1004.7 152.994L1004.73 152.655L1004.73 152.313L1004.73 136.422L1005.13 136.461L1006.83 136.609L1006.99 136.624L1007.15 136.632C1007.64 136.656 1008.14 136.663 1008.64 136.663C1014.51 136.663 1021.74 135.14 1026.62 132.869C1031.29 130.703 1041.97 124.75 1040.11 116.343Z" fill="#ffffff" fill-rule="nonzero" opacity="1" stroke="none"/>
<path d="M996.935 132.744C996.935 131.946 996.982 131.279 997.005 130.543C996.966 129.565 996.935 128.848 996.935 128.848C996.935 128.848 996.982 128.813 997.06 128.763C997.64 118.349 1000.51 114.337 1003.59 112.05C1003.16 111.454 1002.66 110.811 1002.2 110.199C1000.9 108.497 999.284 106.386 997.555 103.678L997.235 103.062C996.974 102.424 996.343 101.321 995.541 99.8718C990.932 91.5349 981.341 74.191 987.905 63.2362C990.78 58.4366 996.172 55.6706 1003.96 54.9889C1000.78 45.9391 988.852 24.1112 961.815 23.6632C961.807 23.6632 961.8 23.6632 961.792 23.6632C938.258 23.2814 930.524 44.669 928.008 57.4471C931.475 55.9784 935.433 55.0863 939.056 55.0863C939.111 55.0863 939.169 55.0863 939.224 55.0863C948.145 55.1525 954.281 59.9131 956.065 68.1526C957.37 74.1988 957.997 79.4893 957.982 84.3317C957.943 94.9242 955.808 100.495 953.922 105.412L953.322 107.001C952.839 108.302 952.329 109.514 951.846 110.651C951.355 111.812 950.923 112.845 950.607 113.776C952.493 114.204 953.973 114.808 954.99 115.256L955.578 115.513C955.761 115.591 955.944 115.681 956.112 115.782C959.415 117.792 961.472 120.882 961.913 124.481C962.15 126.421 962.111 139.647 962.029 151.187C962.368 156.193 963.218 160.396 964.34 163.443C965.933 167.783 969.914 176.069 977.562 175.594C982.899 175.262 988.03 172.013 991.435 167.728C995.089 163.127 996.437 158.039 996.943 152.309L996.943 132.744L996.935 132.744Z" fill="#0277bd" fill-rule="nonzero" opacity="1" stroke="none"/>
<path d="M927.256 112.942C920.972 106.386 917.91 97.5656 919.059 89.3494C920.17 81.4216 919.542 73.6612 919.203 69.4889C919.09 68.0981 919.016 67.0618 919.02 66.4891C919.02 66.458 919.028 66.4307 919.032 66.3995C919.032 66.384 919.024 66.3723 919.024 66.3567C919.496 54.5876 924.034 36.0205 936.528 24.9838C930.443 22.5879 920.532 19.4285 911.229 19.7674C896.651 20.2972 882.54 30.3794 883.959 58.7249C884.492 69.3603 896.511 133.145 912.943 132.744C915.292 132.686 917.731 131.178 920.236 128.163C924.198 123.398 928.047 119.078 930.785 116.07C929.558 115.139 928.374 114.111 927.256 112.942ZM1012.61 57.677C1012.67 58.2769 1012.62 58.7911 1012.52 59.2664C1012.64 62.8505 1012.26 66.3294 1011.86 69.6953C1011.58 72.173 1011.28 74.7326 1011.2 77.2999C1011.12 79.8126 1011.47 82.2942 1011.84 84.9199C1012.72 91.0674 1013.63 98.0058 1008.86 106.101C1009.74 107.254 1010.51 108.326 1011.13 109.362C1029.09 80.2411 1036.33 45.6235 1029.42 36.7996C1018.97 23.445 1004.5 19.5804 993.036 19.7674C989.448 19.8258 986.187 20.3089 983.401 20.9128C1003.18 30.4963 1011.98 51.0347 1012.61 57.677ZM1028.1 117.438C1017.72 119.58 1012.72 118.439 1010.3 116.947C1009.91 117.227 1009.52 117.465 1009.16 117.687C1007.71 118.564 1005.42 119.958 1004.86 128.525C1005.18 128.587 1005.46 128.622 1005.81 128.697L1007.51 128.848C1012.65 129.082 1019.39 127.641 1023.34 125.806C1031.85 121.856 1036.49 115.708 1028.1 117.438ZM954.172 125.416C954.028 124.255 953.4 123.316 952.255 122.565L951.834 122.381C950.428 121.762 948.834 121.057 946.291 121.057L946.275 121.057C945.78 121.096 945.289 121.131 944.795 121.131C944.592 121.131 944.393 121.104 944.191 121.096C942.344 122.518 939.718 123.616 933.22 124.953C921.611 127.91 928.464 131.4 932.916 131.942C937.225 133.021 947.467 134.334 954.269 128.79C954.25 127.045 954.218 125.845 954.172 125.416Z" fill="#0277bd" fill-rule="nonzero" opacity="1" stroke="none"/>
<path d="M948.944 72.3639C947.806 73.5405 946.01 74.5689 944.027 74.2495C940.801 73.7275 938.328 69.8356 938.507 68.3747L938.507 68.3747C938.678 66.9177 941.433 66.158 944.654 66.68C945.772 66.8631 946.789 67.1787 947.646 67.5683C946.4 64.888 944.144 63.3414 940.704 62.9635C934.607 62.2856 928.136 65.4724 926.835 67.2371C926.862 67.6657 926.913 68.215 926.964 68.8617C927.326 73.3301 927.996 81.6553 926.769 90.4324C925.959 96.2176 928.3 102.778 932.874 107.554C935.823 110.632 939.267 112.58 942.664 113.156C943.096 111.294 943.867 109.479 944.662 107.605C945.102 106.573 945.57 105.474 946.01 104.286L946.641 102.622C948.367 98.1226 950.147 93.4672 950.182 84.3005C950.198 80.7749 949.766 76.7506 948.944 72.3639ZM1004.13 86.0224C1003.73 83.1824 1003.31 80.2411 1003.41 77.0505C1003.5 74.1599 1003.82 71.4329 1004.13 68.7954C1004.37 66.719 1004.56 64.7244 1004.66 62.757C999.643 63.1739 996.308 64.6231 994.726 67.0735C995.381 66.8515 996.121 66.6761 996.939 66.571C1000.41 66.119 1002.95 67.1203 1003.24 69.0525C1003.46 70.4667 1002.26 71.7991 1001.73 72.3094C1000.65 73.3574 999.292 74.0313 997.909 74.2105C997.66 74.2417 997.407 74.2573 997.161 74.2573C995.786 74.2573 994.473 73.7859 993.464 73.0885C993.901 80.7749 999.569 91.0558 1002.36 96.1008C1002.95 97.1799 1003.41 98.0408 1003.8 98.781C1005.33 94.4217 1004.76 90.448 1004.13 86.0224Z" fill="#0277bd" fill-rule="nonzero" opacity="1" stroke="none"/>
</g>
</g>
</g>
</svg>
