<svg width="110" height="40" viewBox="0 0 110 40" fill="none" xmlns="http://www.w3.org/2000/svg">
<g clip-path="url(#clip0_462_5438)">
<rect width="110" height="40" fill="white"/>
<path d="M23.8705 23.0994C25.6301 23.0994 27.0564 21.699 27.0564 19.9714C27.0564 18.2438 25.6301 16.8434 23.8705 16.8434C22.111 16.8434 20.6846 18.2438 20.6846 19.9714C20.6846 21.699 22.111 23.0994 23.8705 23.0994Z" fill="#00D8FF"/>
<path fill-rule="evenodd" clip-rule="evenodd" d="M23.8705 13.6115C28.1481 13.6115 32.1218 14.2141 35.118 15.2268C38.728 16.447 40.9476 18.2966 40.9476 19.9714C40.9476 21.7166 38.5953 23.6815 34.7186 24.9426C31.7878 25.8959 27.931 26.3936 23.8705 26.3936C19.7074 26.3936 15.7652 25.9265 12.8013 24.9321C9.05152 23.6737 6.79297 21.6834 6.79297 19.9714C6.79297 18.3102 8.91219 16.4749 12.4714 15.2565C15.4788 14.2271 19.5506 13.6115 23.87 13.6115H23.8705Z" stroke="#00D8FF" stroke-width="1.66272"/>
<path fill-rule="evenodd" clip-rule="evenodd" d="M18.2316 16.8097C20.3686 13.1716 22.8854 10.0929 25.2758 8.05052C28.1558 5.58973 30.8966 4.62602 32.3742 5.4626C33.9141 6.33446 34.4726 9.31682 33.6486 13.2439C33.0262 16.213 31.538 19.7417 29.5094 23.1953C27.4296 26.7361 25.0481 29.8557 22.6903 31.8791C19.7067 34.4398 16.8223 35.3665 15.3118 34.5112C13.846 33.6819 13.2855 30.9621 13.9887 27.3262C14.5828 24.2541 16.0737 20.4834 18.2309 16.8097L18.2316 16.8097Z" stroke="#00D8FF" stroke-width="1.66272"/>
<path fill-rule="evenodd" clip-rule="evenodd" d="M18.2368 23.2045C16.0938 19.5705 14.6347 15.8915 14.0257 12.8382C13.2926 9.15943 13.8109 6.34673 15.2872 5.50772C16.8256 4.6333 19.7361 5.64764 22.7899 8.30982C25.0987 10.3225 27.4695 13.3502 29.504 16.8005C31.5898 20.3379 33.1531 23.9217 33.7612 26.9378C34.5307 30.7545 33.9079 33.6708 32.3988 34.5285C30.9345 35.3608 28.255 34.4796 25.3978 32.0656C22.9837 30.0261 20.401 26.8746 18.2368 23.2045V23.2045Z" stroke="#00D8FF" stroke-width="1.66272"/>
<path fill-rule="evenodd" clip-rule="evenodd" d="M59.235 27.9632L55.33 22.1708C57.3036 21.9998 59.0819 20.5958 59.0819 18.0308C59.0819 15.4208 57.1954 13.7504 54.549 13.7504H48.7373V27.9524H50.5376V22.3094H53.4224L57.1092 27.9524L59.235 27.9632ZM54.3336 20.7659H50.5386V15.3362H54.3336C56.0477 15.3362 57.2183 16.4432 57.2183 18.0407C57.2183 19.6382 56.0468 20.7677 54.3336 20.7677V20.7659ZM65.9367 28.2179C67.6509 28.2179 69.0598 27.6644 70.1011 26.6429L69.3201 25.5989C68.4951 26.4296 67.2815 26.8976 66.0889 26.8976C63.8339 26.8976 62.4451 25.2794 62.315 23.3426H70.7941V22.9376C70.7941 19.8506 68.9287 17.4224 65.7616 17.4224C62.7687 17.4224 60.6008 19.829 60.6008 22.8098C60.6008 26.0255 62.8347 28.2098 65.9358 28.2098L65.9367 28.2179ZM69.1909 22.1699H62.3159C62.403 20.5949 63.5076 18.7409 65.7424 18.7409C68.1285 18.7409 69.1689 20.6363 69.1909 22.1699ZM81.5971 27.9623V20.8928C81.5971 18.4016 79.7546 17.4215 77.5417 17.4215C75.8276 17.4215 74.4837 17.975 73.3562 19.1252L74.1152 20.2322C75.0475 19.253 76.0677 18.8057 77.3254 18.8057C78.8434 18.8057 79.9718 19.5932 79.9718 20.9774V22.8296C79.1257 21.8711 77.9331 21.4238 76.5013 21.4238C74.723 21.4238 72.8346 22.5101 72.8346 24.8096C72.8346 27.0452 74.7211 28.217 76.5013 28.217C77.9111 28.217 79.1046 27.7274 79.9718 26.7905V27.9605L81.5971 27.9623ZM77.0871 27.0677C75.5691 27.0677 74.5057 26.1317 74.5057 24.8321C74.5057 23.5118 75.5691 22.5749 77.0871 22.5749C78.2366 22.5749 79.3421 23.0006 79.9718 23.8529V25.7906C79.343 26.642 78.2366 27.0677 77.0871 27.0677ZM89.4621 28.2179C91.3706 28.2179 92.4981 27.4511 93.3011 26.4296L92.2166 25.4504C91.5227 26.3657 90.6336 26.7914 89.5583 26.7914C87.3244 26.7914 85.9375 25.0877 85.9375 22.8098C85.9375 20.5319 87.3253 18.8498 89.5583 18.8498C90.6427 18.8498 91.5319 19.2548 92.2166 20.1908L93.3011 19.2116C92.499 18.1892 91.3706 17.4233 89.4621 17.4233C86.339 17.4233 84.2352 19.766 84.2352 22.8107C84.2352 25.877 86.339 28.2107 89.4621 28.2107V28.2179ZM98.2254 28.2179C99.1787 28.2179 99.7654 27.9407 100.178 27.5582L99.7012 26.3657C99.484 26.5997 99.0596 26.7914 98.5948 26.7914C97.8798 26.7914 97.5315 26.2379 97.5315 25.4711V19.0829H99.6581V17.678H97.5315V14.8673H95.9044V17.678H94.1691V19.0838H95.9044V25.8131C95.9044 27.3467 96.6854 28.2197 98.2254 28.2197V28.2179Z" fill="#00D8FF"/>
</g>
<defs>
<clipPath id="clip0_462_5438">
<rect width="110" height="40" fill="white"/>
</clipPath>
</defs>
</svg>
