<svg width="76" height="40" viewBox="0 0 76 40" fill="none" xmlns="http://www.w3.org/2000/svg">
<rect width="76" height="40" fill="white"/>
<path fill-rule="evenodd" clip-rule="evenodd" d="M67.8485 20.37C67.8485 16.2779 65.822 13.0481 61.9466 13.0481C58.0569 13.0481 55.7018 16.2772 55.7018 20.3373C55.7018 25.149 58.4807 27.5785 62.4692 27.5785C64.4147 27.5785 65.886 27.1474 66.9974 26.5397V23.3425C65.886 23.8863 64.611 24.2214 62.9926 24.2214C61.4068 24.2214 60.001 23.6777 59.8211 21.7919H67.8137C67.8137 21.5833 67.8464 20.7531 67.8464 20.3693L67.8485 20.37ZM59.7799 18.8521C59.7799 17.0456 60.9077 16.2946 61.938 16.2946C62.935 16.2946 63.998 17.0456 63.998 18.8521H59.7799ZM49.4002 13.0495C47.7981 13.0495 46.7692 13.7845 46.1961 14.2962L45.9827 13.3054H42.3797V31.9438L46.4663 31.0969L46.4826 26.573C47.0714 26.9889 47.9375 27.5799 49.3767 27.5799C52.3028 27.5799 54.9673 25.2853 54.9673 20.2107C54.9509 15.575 52.2538 13.0488 49.3924 13.0488L49.4002 13.0495ZM48.4189 24.0636C47.4547 24.0636 46.883 23.7277 46.4897 23.3126L46.4734 17.3814C46.8986 16.9177 47.4867 16.5985 48.4189 16.5985C49.9065 16.5985 50.9361 18.229 50.9361 20.3227C50.9361 22.4643 49.9228 24.0636 48.4189 24.0636ZM36.7571 12.1066L40.8601 11.2444V8L36.7571 8.84692V12.1066ZM36.7571 13.3214H40.8601V27.308H36.7571V13.3214ZM32.3591 14.5035L32.0974 13.3214H28.5662V27.3094H32.6528V17.8292C33.617 16.5985 35.2518 16.8224 35.7588 16.9983V13.3221C35.2354 13.1302 33.3233 12.7783 32.3584 14.5041L32.3591 14.5035ZM24.1859 9.84472L20.1974 10.677L20.1811 23.4809C20.1811 25.8464 21.9958 27.5889 24.4149 27.5889C25.7553 27.5889 26.7358 27.349 27.2756 27.0605V23.8154C26.7522 24.024 24.1695 24.7582 24.1695 22.3927V16.7264H27.2756V13.3214H24.1681L24.1859 9.84472ZM13.1357 17.3738C13.1357 16.7501 13.659 16.5116 14.5251 16.5116C15.9389 16.541 17.3263 16.8909 18.5783 17.5337V13.7852C17.2215 13.2567 15.8812 13.0502 14.5251 13.0502C11.2065 13.0502 9 14.7447 9 17.574C9 21.9859 15.212 21.2823 15.212 23.1854C15.212 23.9204 14.5578 24.1602 13.6427 24.1602C12.2859 24.1602 10.553 23.6165 9.1799 22.8808V26.6843C10.7002 27.324 12.2376 27.5882 13.6427 27.5882C17.0431 27.5882 19.3811 25.9417 19.3811 23.0804C19.3648 18.3174 13.1357 19.1643 13.1357 17.3738Z" fill="#6772E5"/>
</svg>
