<svg width="110" height="40" viewBox="0 0 110 40" fill="none" xmlns="http://www.w3.org/2000/svg">
<g clip-path="url(#clip0_462_5485)">
<rect width="110" height="40" fill="white"/>
<path d="M29.0493 21.9145C29.1533 22.8686 30.0379 24.5043 32.6051 24.5043C34.8425 24.5043 35.9181 23.1071 35.9181 21.7441C35.9181 20.5173 35.068 19.5121 33.3856 19.1713L32.1713 18.9157C31.7031 18.8306 31.3909 18.575 31.3909 18.1661C31.3909 17.689 31.8765 17.3312 32.4837 17.3312C33.4549 17.3312 33.8192 17.9616 33.8886 18.4557L35.8139 18.0298C35.7099 17.1267 34.8946 15.6104 32.4663 15.6104C30.6277 15.6104 29.2748 16.8541 29.2748 18.3535C29.2748 19.5291 30.0205 20.5003 31.6684 20.8581L32.7959 21.1137C33.4549 21.25 33.7152 21.5567 33.7152 21.9315C33.7152 22.3745 33.3509 22.7664 32.5877 22.7664C31.5817 22.7664 31.0786 22.153 31.0267 21.4885L29.0493 21.9145Z" fill="#1F1F1F"/>
<path d="M43.2902 24.2486H45.493C45.4583 23.959 45.4062 23.3797 45.4062 22.7322V15.8658H43.0992V20.7388C43.0992 21.71 42.5096 22.3915 41.4862 22.3915C40.4108 22.3915 39.9251 21.6418 39.9251 20.7047V15.8658H37.6182V21.1647C37.6182 22.9878 38.7976 24.4701 40.8617 24.4701C41.7635 24.4701 42.7526 24.1294 43.2209 23.3456C43.2209 23.6864 43.2554 24.0782 43.2902 24.2486Z" fill="#1F1F1F"/>
<path d="M50.1749 27.4859V23.4309C50.591 23.9931 51.4585 24.4532 52.638 24.4532C55.0489 24.4532 56.6618 22.5789 56.6618 20.0402C56.6618 17.5527 55.2224 15.6785 52.7247 15.6785C51.4413 15.6785 50.4872 16.2407 50.1056 16.8882V15.8659H47.8682V27.4859H50.1749ZM54.3897 20.0573C54.3897 21.5567 53.4532 22.4256 52.2736 22.4256C51.0944 22.4256 50.1403 21.5396 50.1403 20.0573C50.1403 18.575 51.0944 17.706 52.2736 17.706C53.4532 17.706 54.3897 18.575 54.3897 20.0573Z" fill="#1F1F1F"/>
<path d="M57.9683 21.9656C57.9683 23.2775 59.0782 24.4872 60.8997 24.4872C62.1655 24.4872 62.9808 23.9079 63.4144 23.2434C63.4144 23.5672 63.4491 24.0272 63.5012 24.2487H65.6173C65.5652 23.959 65.5134 23.3627 65.5134 22.9197V18.7965C65.5134 17.1097 64.5073 15.6104 61.8016 15.6104C59.5119 15.6104 58.2803 17.0586 58.1417 18.3705L60.1883 18.7965C60.2578 18.0638 60.8128 17.4334 61.8186 17.4334C62.7902 17.4334 63.2585 17.9275 63.2585 18.5239C63.2585 18.8135 63.1025 19.0521 62.6168 19.1202L60.518 19.4269C59.0957 19.6314 57.9683 20.4662 57.9683 21.9656ZM61.3851 22.8005C60.6394 22.8005 60.275 22.3234 60.275 21.8293C60.275 21.1818 60.7432 20.8581 61.3332 20.7729L63.2585 20.4833V20.8581C63.2585 22.3404 62.3565 22.8005 61.3851 22.8005Z" fill="#1F1F1F"/>
<path d="M70.0765 24.2488V23.2265C70.5272 23.9421 71.4292 24.4532 72.6087 24.4532C75.0373 24.4532 76.6331 22.562 76.6331 20.0233C76.6331 17.5357 75.1932 15.6445 72.6955 15.6445C71.4292 15.6445 70.4926 16.1897 70.111 16.786V11.9131H67.8389V24.2488H70.0765ZM74.3258 20.0403C74.3258 21.5737 73.3893 22.4257 72.2097 22.4257C71.0477 22.4257 70.0765 21.5567 70.0765 20.0403C70.0765 18.5069 71.0477 17.672 72.2097 17.672C73.3893 17.672 74.3258 18.5069 74.3258 20.0403Z" fill="#1F1F1F"/>
<path d="M77.9395 21.9656C77.9395 23.2775 79.0494 24.4872 80.8707 24.4872C82.1367 24.4872 82.9522 23.9079 83.3856 23.2434C83.3856 23.5672 83.4205 24.0272 83.4724 24.2487H85.5884C85.5367 23.959 85.4846 23.3627 85.4846 22.9197V18.7965C85.4846 17.1097 84.4785 15.6104 81.7726 15.6104C79.4831 15.6104 78.2516 17.0586 78.1129 18.3705L80.1594 18.7965C80.229 18.0638 80.784 17.4334 81.7898 17.4334C82.7614 17.4334 83.2297 17.9275 83.2297 18.5239C83.2297 18.8135 83.0736 19.0521 82.5878 19.1202L80.4892 19.4269C79.0669 19.6314 77.9395 20.4662 77.9395 21.9656ZM81.3565 22.8005C80.6106 22.8005 80.2462 22.3234 80.2462 21.8293C80.2462 21.1818 80.7144 20.8581 81.3044 20.7729L83.2297 20.4833V20.8581C83.2297 22.3404 82.3277 22.8005 81.3565 22.8005Z" fill="#1F1F1F"/>
<path d="M87.0811 21.9145C87.1849 22.8686 88.0696 24.5043 90.6366 24.5043C92.8742 24.5043 93.9495 23.1071 93.9495 21.7441C93.9495 20.5173 93.0998 19.5121 91.4172 19.1713L90.2029 18.9157C89.7347 18.8306 89.4227 18.575 89.4227 18.1661C89.4227 17.689 89.9081 17.3312 90.5153 17.3312C91.4868 17.3312 91.8509 17.9616 91.9205 18.4557L93.8456 18.0298C93.7415 17.1267 92.9263 15.6104 90.4981 15.6104C88.6593 15.6104 87.3066 16.8541 87.3066 18.3535C87.3066 19.5291 88.0521 20.5003 89.7001 20.8581L90.8276 21.1137C91.4868 21.25 91.7469 21.5567 91.7469 21.9315C91.7469 22.3745 91.3827 22.7664 90.6194 22.7664C89.6133 22.7664 89.1105 22.153 89.0584 21.4885L87.0811 21.9145Z" fill="#1F1F1F"/>
<path d="M97.4532 19.1032C97.5053 18.3365 98.1645 17.4504 99.3612 17.4504C100.679 17.4504 101.235 18.2683 101.269 19.1032H97.4532ZM101.495 21.2841C101.217 22.0337 100.627 22.5619 99.552 22.5619C98.4072 22.5619 97.4532 21.7611 97.4014 20.6537H103.507C103.507 20.6195 103.541 20.2788 103.541 19.9551C103.541 17.263 101.963 15.6104 99.3265 15.6104C97.1412 15.6104 95.1289 17.3482 95.1289 20.0232C95.1289 22.8516 97.1929 24.5043 99.5347 24.5043C101.633 24.5043 102.986 23.2945 103.42 21.8463L101.495 21.2841Z" fill="#1F1F1F"/>
<path d="M17.8555 29.3284C17.359 29.9418 16.3524 29.6057 16.3404 28.8224L16.1655 17.3666H24.0166C25.4386 17.3666 26.2317 18.978 25.3474 20.0707L17.8555 29.3284Z" fill="url(#paint0_linear_462_5485)"/>
<path d="M17.8555 29.3284C17.359 29.9418 16.3524 29.6057 16.3404 28.8224L16.1655 17.3666H24.0166C25.4386 17.3666 26.2317 18.978 25.3474 20.0707L17.8555 29.3284Z" fill="url(#paint1_linear_462_5485)" fill-opacity="0.2"/>
<path d="M14.6625 10.8949C15.1589 10.2815 16.1656 10.6176 16.1776 11.4009L16.2542 22.8567H8.50143C7.07935 22.8567 6.28623 21.2452 7.17052 20.1525L14.6625 10.8949Z" fill="#3ECF8E"/>
</g>
<defs>
<linearGradient id="paint0_linear_462_5485" x1="16.1655" y1="19.9066" x2="23.103" y2="22.8721" gradientUnits="userSpaceOnUse">
<stop stop-color="#249361"/>
<stop offset="1" stop-color="#3ECF8E"/>
</linearGradient>
<linearGradient id="paint1_linear_462_5485" x1="13.072" y1="15.7509" x2="16.1606" y2="21.677" gradientUnits="userSpaceOnUse">
<stop/>
<stop offset="1" stop-opacity="0"/>
</linearGradient>
<clipPath id="clip0_462_5485">
<rect width="110" height="40" fill="white"/>
</clipPath>
</defs>
</svg>
