<svg width="58" height="40" viewBox="0 0 58 40" fill="none" xmlns="http://www.w3.org/2000/svg">
<rect width="58" height="40" fill="white"/>
<g clip-path="url(#clip0_462_5526)">
<path d="M37.0006 4C34.5499 4.01448 32.7976 4.70347 31.7436 6.0655L24.1611 16.0928V16.1321L29.6635 20.8244L42.139 8.66986C43.1666 7.66705 43.1139 6.63428 41.9809 5.57159C40.8478 4.52387 39.2141 4 37.0796 4H37.0006Z" fill="#6EEB83"/>
<path d="M24.1614 16.1068L17.7417 21.0339L17.7911 21.0853V29.078C17.7911 30.1856 18.3708 31.0687 19.5302 31.7273C20.6633 32.3858 22.0336 32.7151 23.641 32.7151H23.799C23.9284 32.7151 24.0349 32.6793 24.1614 32.6749V16.1068ZM29.6638 20.8244L24.1614 16.1321V32.6749C25.5814 32.6255 26.8453 32.332 27.9098 31.7273C29.0692 31.0837 29.6489 30.2006 29.6489 29.078V20.8384L29.6638 20.8244Z" fill="#30BCED"/>
<path d="M10.7554 4C8.70004 4.01448 7.09261 4.53883 5.93318 5.57159C4.77373 6.60434 4.69473 7.62964 5.69612 8.64743L17.7417 21.034L24.1614 16.1069V16.0924L24.155 16.1014C21.5726 12.8685 19.0693 9.52321 16.6451 6.0657C15.6965 4.6887 13.9441 4.00019 11.3881 4.00019L10.7554 4Z" fill="#FFBC42"/>
<path d="M39.9198 31.8278C39.9198 33.1499 39.3434 34.232 38.1905 35.0739C36.8401 36.0406 35.012 36.3929 32.7063 36.131C32.5087 36.1122 32.2617 36.0623 31.9652 35.9812C31.2625 35.7879 30.9111 35.473 30.9111 35.0365C30.9111 34.7558 31.0703 34.5157 31.3887 34.3161C31.7181 34.1166 32.1134 34.0168 32.5745 34.0168C33.0357 34.0168 33.4639 33.9575 33.8592 33.839C34.8253 33.5833 35.3029 32.9753 35.292 32.0149V25.8033C35.292 25.4416 35.517 25.1329 35.9672 24.8772C36.3954 24.6277 36.9334 24.503 37.5812 24.503H37.6472C38.2949 24.503 38.8329 24.6277 39.2611 24.8772C39.7003 25.1329 39.9199 25.4416 39.9199 25.8033L39.9198 31.8278ZM39.1952 23.2402C38.7121 23.5333 38.1137 23.6799 37.4 23.6799C36.7193 23.6799 36.1264 23.5364 35.6213 23.2495C35.1163 22.9626 34.8638 22.6228 34.8638 22.2299C34.8638 21.8307 35.1053 21.4909 35.5884 21.2102C36.0715 20.9234 36.6754 20.7799 37.4 20.7799C38.1137 20.7799 38.7121 20.9234 39.1952 21.2102C39.6783 21.4971 39.9198 21.837 39.9198 22.2299C39.9092 22.6041 39.6676 22.9408 39.1952 23.2402Z" fill="#313330"/>
<path d="M42.0442 31.2853C42.1429 31.0483 42.4119 30.855 42.8511 30.7053C43.2464 30.5681 43.7789 30.5618 44.4486 30.6866C45.1184 30.8113 45.7991 30.8675 46.4908 30.855C47.8084 30.8425 48.4671 30.6087 48.4671 30.1534C48.4671 29.9476 48.3244 29.7792 48.039 29.6482C47.7535 29.5173 47.1771 29.3645 46.3097 29.1899C43.455 28.6286 42.0387 27.7804 42.0606 26.6454C42.0825 25.8284 42.6425 25.1642 43.7405 24.6528C44.8275 24.1414 46.2822 23.8857 48.1048 23.8857C48.9612 23.8797 49.8451 23.9483 50.7564 24.0915C51.1626 24.1539 51.4865 24.2911 51.7281 24.5032C51.9586 24.7152 52.0135 24.9428 51.8928 25.186V25.1951C51.8159 25.4321 51.5743 25.6223 51.1681 25.7657C50.7619 25.9029 50.3008 25.931 49.7848 25.8499C49.2577 25.7688 48.7472 25.722 48.2531 25.7096C47.0783 25.6971 46.4909 25.9186 46.4909 26.3738C46.4909 26.5609 46.6611 26.7293 47.0015 26.8789C47.3418 27.0224 47.9732 27.1845 48.8954 27.3654C51.5415 27.8955 52.87 28.7561 52.881 29.9473C52.9028 30.7642 52.3704 31.4284 51.2835 31.9398C50.1965 32.445 48.599 32.6975 46.4909 32.6975C45.382 32.6975 44.2786 32.6134 43.1806 32.445C42.7963 32.3888 42.4779 32.2392 42.2253 31.996C41.9838 31.7715 41.9235 31.5438 42.0443 31.3131L42.0442 31.2853Z" fill="#313330"/>
</g>
<defs>
<clipPath id="clip0_462_5526">
<rect width="47.8819" height="32.2148" fill="white" transform="translate(5 4)"/>
</clipPath>
</defs>
</svg>
