<svg width="170" height="47" viewBox="0 0 170 47" fill="none" xmlns="http://www.w3.org/2000/svg">
<rect width="170" height="47" fill="url(#paint0_linear_202_5727)"/>
<path fill-rule="evenodd" clip-rule="evenodd" d="M19.3523 3.70319H17.6714L7 28.275H12.1598L18.5314 12.9274L21.6977 21.0526H16.2251L14.5443 25.1348H23.4567L24.7076 28.3142H30.0628L19.3523 3.70319ZM116.255 3.70319H114.575L103.903 28.275H109.063L115.435 12.8489L118.601 20.9741H113.167L111.486 25.0563H120.36L121.611 28.2357H126.966L116.255 3.70319ZM42.4543 20.3068L47.4968 28.3143H53.3212L45.4642 15.9499L52.8521 4.09572H47.2623L42.5715 11.7499L37.8808 4.09572H32.291L39.7962 15.9499L31.8219 28.3143H37.4117L42.4543 20.3068ZM73.7258 7.39289C76.1494 9.55175 77.4002 12.4564 77.4002 16.1854C77.4002 19.7573 76.1494 22.7012 73.7258 24.9778C71.3023 27.2544 68.136 28.432 64.3052 28.432H56.4873V4.21347H64.4225C68.136 4.13496 71.3413 5.39103 73.7258 7.39289ZM61.2953 8.64895V23.8395H64.227C66.6506 23.8395 68.6833 23.1722 70.0514 21.7984C71.615 20.4246 72.3186 18.619 72.3186 16.1854C72.3186 13.9087 71.5368 11.9854 70.0514 10.5723C68.566 9.11998 66.6115 8.5312 64.227 8.5312L61.2953 8.64895ZM98.0788 16.0675C97.1797 17.3236 96.1634 18.2264 94.9125 18.8937L102.066 28.5497H96.4761L87.1728 15.7142H90.7299C91.8635 15.7142 92.7626 15.361 93.4271 14.6937C94.0916 14.0657 94.4434 13.1629 94.4434 12.1423C94.4434 11.161 94.0916 10.2582 93.4271 9.59092C92.7626 9.04139 91.7462 8.68812 90.7299 8.68812H86.5473V28.4319H81.622V4.21338H90.6126C93.1144 4.21338 95.1079 4.99843 96.7888 6.37225C98.3133 7.78532 99.2123 9.70868 99.2123 11.9853C99.2123 13.5161 98.8605 14.9292 98.0788 16.0675ZM144.712 8.64888H134.627V14.733H142.015V19.2077H134.51V28.3927H129.585V4.17414H144.712V8.64888ZM158.941 8.64888H165V4.17414H147.918V8.64888H154.016V28.3927H158.941V8.64888Z" fill="white"/>
<path d="M65.517 33.2805H66.5334L70.0905 42.4262H68.9569L67.9797 39.9533H64.0707L63.1326 42.4262H61.9599L65.517 33.2805ZM64.4616 38.8935H67.5888L66.0252 34.8505L64.4616 38.8935Z" fill="#3B3B3C"/>
<path d="M76.1495 38.5403V42.4263H75.055V38.7366C75.055 37.716 74.4296 37.245 73.6087 37.245C72.6315 37.245 72.1233 38.2655 72.1233 38.2655V42.4263H71.0288V36.3814H72.0451V37.245C72.0451 37.245 72.5924 36.2244 73.8823 36.2244C75.0941 36.2244 76.1495 37.0487 76.1495 38.5403Z" fill="#3B3B3C"/>
<path d="M90.1044 37.8337C90.1044 40.4636 88.2281 42.544 85.6091 42.544C82.9901 42.544 81.1138 40.4636 81.1138 37.8337C81.1138 35.2038 82.9901 33.1235 85.6091 33.1235C88.2281 33.1235 90.1044 35.2038 90.1044 37.8337ZM88.9317 37.8337C88.9317 35.8711 87.6026 34.144 85.6091 34.144C83.6155 34.144 82.2865 35.8711 82.2865 37.8337C82.2865 39.7963 83.6155 41.5234 85.6091 41.5234C87.6026 41.5234 88.9317 39.7963 88.9317 37.8337Z" fill="#3B3B3C"/>
<path d="M96.5542 38.5403V42.4263H95.4597V38.7366C95.4597 37.716 94.8343 37.245 94.0134 37.245C93.0362 37.245 92.528 38.2655 92.528 38.2655V42.4263H91.4335V36.3814H92.4498V37.245C92.4498 37.245 92.9971 36.2244 94.287 36.2244C95.4988 36.2244 96.5542 37.0487 96.5542 38.5403Z" fill="#3B3B3C"/>
<path d="M98.9777 33.7123C99.3686 33.7123 99.7204 34.0656 99.7204 34.4581C99.7204 34.8507 99.3686 35.2039 98.9777 35.2039C98.5868 35.2039 98.235 34.8507 98.235 34.4581C98.235 34.0656 98.5477 33.7123 98.9777 33.7123ZM98.4304 36.3815H99.5249V42.4263H98.4304V36.3815Z" fill="#3B3B3C"/>
<path d="M100.854 36.3815H102.027V34.5366H103.121V36.3815H104.997V37.3628H103.121V40.6207C103.121 41.2095 103.395 41.5627 103.981 41.5627C104.333 41.5627 104.685 41.3272 104.685 41.3272L105.076 42.23C104.567 42.5048 104.177 42.5833 103.825 42.5833C102.965 42.5833 102.027 42.0338 102.027 40.6992V37.402H100.854V36.3815Z" fill="#3B3B3C"/>
<path d="M116.568 35.2431C116.568 35.2431 115.708 34.1833 114.066 34.1833C112.073 34.1833 110.744 35.9104 110.744 37.873C110.744 39.8356 112.112 41.5627 114.066 41.5627C115.708 41.5627 116.685 40.3459 116.685 40.3459L117.428 41.0917C117.428 41.0917 116.177 42.5833 114.066 42.5833C111.447 42.5833 109.571 40.5029 109.571 37.873C109.571 35.2431 111.447 33.1628 114.066 33.1628C116.216 33.1628 117.311 34.5759 117.311 34.5759L116.568 35.2431Z" fill="#3B3B3C"/>
<path d="M124.308 39.4038C124.308 41.1702 122.979 42.5833 121.22 42.5833C119.461 42.5833 118.132 41.1702 118.132 39.4038C118.132 37.6375 119.461 36.2244 121.22 36.2244C122.979 36.2244 124.308 37.5983 124.308 39.4038ZM123.213 39.4038C123.213 38.2263 122.432 37.245 121.22 37.245C120.008 37.245 119.226 38.2263 119.226 39.4038C119.226 40.5814 120.008 41.5627 121.22 41.5627C122.432 41.5627 123.213 40.5814 123.213 39.4038Z" fill="#3B3B3C"/>
<path d="M133.963 38.5402V42.4262H132.868V38.7365C132.868 37.7552 132.36 37.2842 131.578 37.2842C130.679 37.2842 130.288 38.2655 130.288 38.2655V42.4655H129.194V38.7758C129.194 37.7945 128.686 37.3234 127.904 37.3234C127.005 37.3234 126.614 38.3047 126.614 38.3047V42.5047H125.519V36.4599H126.536V37.3627C126.536 37.3627 126.966 36.3029 128.217 36.3029C129.702 36.3029 130.093 37.4412 130.093 37.4412C130.093 37.4412 130.562 36.3029 131.891 36.3029C133.142 36.2244 133.963 37.0487 133.963 38.5402Z" fill="#3B3B3C"/>
<path d="M136.66 36.3814V37.245C136.66 37.245 137.246 36.2244 138.693 36.2244C140.334 36.2244 141.624 37.6375 141.624 39.4038C141.624 41.1702 140.334 42.5833 138.693 42.5833C137.598 42.5833 136.973 41.9552 136.738 41.6805V45.4094H135.644V36.3814H136.66ZM136.738 40.5029C136.738 40.5029 137.325 41.5235 138.497 41.5235C139.709 41.5235 140.491 40.5422 140.491 39.3646C140.491 38.187 139.709 37.2057 138.497 37.2057C137.285 37.2057 136.738 38.2263 136.738 38.2263V40.5029Z" fill="#3B3B3C"/>
<path d="M147.84 38.4225V42.387H146.823V41.5235C146.823 41.5235 146.159 42.544 144.791 42.544C143.696 42.544 142.563 41.7982 142.563 40.4637C142.563 39.2861 143.579 38.4618 144.947 38.4618C146.042 38.4618 146.745 38.9721 146.745 38.9721V38.6581C146.745 37.402 145.69 37.245 145.221 37.245C144.322 37.245 143.423 37.7553 143.423 37.7553L142.954 36.8525C142.954 36.8525 143.892 36.2244 145.221 36.2244C146.98 36.2244 147.84 37.3235 147.84 38.4225ZM146.745 40.6992V39.8356C146.745 39.8356 146.159 39.4038 145.182 39.4038C144.243 39.4038 143.657 39.8749 143.657 40.5029C143.657 41.288 144.361 41.602 145.025 41.602C146.081 41.602 146.745 40.6992 146.745 40.6992Z" fill="#3B3B3C"/>
<path d="M154.602 38.5403V42.4263H153.508V38.7366C153.508 37.716 152.882 37.245 152.061 37.245C151.084 37.245 150.576 38.2655 150.576 38.2655V42.4263H149.481V36.3814H150.498V37.245C150.498 37.245 151.045 36.2244 152.335 36.2244C153.547 36.2244 154.602 37.0487 154.602 38.5403Z" fill="#3B3B3C"/>
<path d="M156.283 44.2318C156.283 44.2318 156.674 44.5458 156.987 44.5458C157.456 44.5458 157.69 44.1925 157.925 43.6037L158.394 42.4262L155.579 36.3813H156.83L158.941 41.1308L160.739 36.3813H161.912C161.912 36.3813 158.902 43.9963 158.746 44.3495C158.394 45.2131 157.729 45.5663 157.065 45.5663C156.322 45.5663 155.775 45.1346 155.775 45.1346L156.283 44.2318Z" fill="#3B3B3C"/>
<defs>
<linearGradient id="paint0_linear_202_5727" x1="85" y1="0" x2="85" y2="47" gradientUnits="userSpaceOnUse">
<stop offset="0.656747" stop-color="#183DAB"/>
<stop offset="0.660819" stop-color="#F8D548"/>
</linearGradient>
</defs>
</svg>
