<svg viewBox="0 0 163 64" fill="none" xmlns="http://www.w3.org/2000/svg"><g clip-path="url(#a)" fill="#000"><path d="M86.9 50.1c-4.7 0-8.3-1-10.9-3a10.7 10.7 0 0 1-4-8.5h6.8a6.1 6.1 0 0 0 2.2 4.5c1.7 1 3.6 1.5 5.6 1.4.8 0 1.7-.1 2.5-.3a7 7 0 0 0 2.2-.8c.5-.3 1-.8 1.4-1.3.4-.7.6-1.4.6-2.1 0-.8-.2-1.5-.6-2.1-.5-.6-1-1-1.7-1.4l-2.7-1-3.5-.8-4.5-1.2c-1.3-.4-2.6-1-3.7-1.8-1.1-.7-2-1.7-2.6-2.8a9 9 0 0 1-1-4.5 9 9 0 0 1 3.7-7.8c1.3-.9 2.7-1.6 4.2-2a20 20 0 0 1 5.3-.6c3.3-.2 6.6.8 9.4 2.8a10.7 10.7 0 0 1 3.9 8h-6.7a5.3 5.3 0 0 0-2.1-4c-1.4-.8-3-1.3-4.6-1.2a8 8 0 0 0-4.5 1.1 3.4 3.4 0 0 0-1.7 3c0 .6.2 1.2.5 1.7.4.6.8 1 1.4 1.3a63.4 63.4 0 0 0 5.7 1.7l5 1.3c1.4.4 2.8 1 4 1.9 1.2.7 2.1 1.7 2.8 3 .7 1.4 1 3 1 4.6 0 1.6-.3 3.2-1 4.6a9.6 9.6 0 0 1-2.8 3.5c-1.3 1-2.7 1.7-4.2 2.1-1.8.5-3.6.8-5.4.7ZM111.2 38l-2.8 3v8.4h-6.5V14.6h6.5V34l8.7-9.5h7.8l-9 9.5L126 49.3h-8L111.3 38ZM126.6 14.6h6.6v6h-6.6v-6Zm0 9.8h6.6v25h-6.6v-25ZM158.5 22.6v-2.9h4.4v-5a18 18 0 0 0-4.4 0 9 9 0 0 0-3.5 1.2c-1 .6-1.8 1.4-2.3 2.4a8.3 8.3 0 0 0-.8 3.9v2.2h-7.3v-4.7h4.2v-4.8c-1.4-.2-2.9-.2-4.3 0-1.2.1-2.3.5-3.4 1.1-1 .6-1.7 1.5-2.3 2.5a8.2 8.2 0 0 0-.8 3.8v2h-3.3V29h3.3v20.4h6.6V29h7.3v20.4h6.6V29h4.4v-4.6h-4.4v-1.8ZM40.8 3.3c2.8 0 5.5.5 8 1.6a31.7 31.7 0 0 0-37.2 2.3l-1.2 1.1-1.2 1.2L8 10.7 7 12 6 13l-1 1.4-.4.7c0 .2-.3.5-.4.6l-.7 1.4-.7 1.5-.6 1.3-.5 1.3-.3 1-.6 2-.3 1.6v.3c-1.4 7.5 0 15.3 3.8 22l1.3 2 .7 1 .7.9 1 1.2 1.2 1.2.8.8.5.4.2.1.2.2.9.7.2.1.2.2 1 .6.5.2.7.4c.2.1.5.3.8.3l1.7.7.9.2.8.2.8.1 2.9.3a18.8 18.8 0 0 0 12.8-5.7c1.7-1.8 3-4 4-6.3l.1-.5.3-.8.3-1.3.2-.6.2-2.5v-.9l-1.8-.2a18.8 18.8 0 0 1-16.5-20 19.1 19.1 0 0 1 18.8-18ZM14.3 51.5a29.2 29.2 0 0 1 1-44.8l.8-.6A28.6 28.6 0 0 1 29.6.8L31 .7h2.7-1.4L31 1l-1.4.3A28.6 28.6 0 0 0 6.2 27a29.2 29.2 0 0 0 6.6 21l.2.3v.1l.2.2a16.4 16.4 0 0 0 19.5 4.5 16.3 16.3 0 0 1-18.4-1.7Zm4-5.4L18 46l-.1-.1-.8-.8A26 26 0 0 1 23 4.9l1.7-1 .6-.2.8-.4c2.1-.8 4.3-1.3 6.5-1.6l1.2-.1h1l2.8.1a25.6 25.6 0 0 0-21 40.4l.8 1 1.2 1.4a14.2 14.2 0 0 0 17.1 3.2c-5.2 3.8-12.8 2.7-17.4-1.6Zm3.1-8.5c1 1.4 2.2 2.7 3.5 3.9a13 13 0 0 0 12 2.3 12.5 12.5 0 0 1-10.7-.3c-1.6-.8-3.2-2-4.4-3.4a22.6 22.6 0 0 1 3.5-33.7l1-.6 1.6-1 1.3-.6c2.4-1 4.9-1.6 7.5-1.7h3l1.3.3H38.6a23.5 23.5 0 0 0-14.7 6.5 22.1 22.1 0 0 0-2.5 28.3Z"></path><path d="m23.4 22.8-.6-.1c.5 0 1 0 1.5.2l-.9-.1Z"></path><path d="M51.4 56.8c.3-.2 1-1 1.3-1.1l1.2-1.2 1.1-1.2 1.1-1.3.9-1.1 1-1.4.4-.7.3-.6.8-1.4.7-1.5.6-1.3.4-1.3.4-1 .5-2 .4-1.6v-.3a32.4 32.4 0 0 0-5.8-25L56 12l-1-1.3-1.2-1.1-.8-.8-.5-.4-.2-.1-.2-.2-.9-.7-.2-.1-.2-.2-1-.6-.5-.2-.7-.4-.8-.4-1.7-.6-1-.2-.7-.2-.8-.2-2.9-.2a18.8 18.8 0 0 0-12.8 5.7c-1.7 1.8-3 4-4 6.2l-.2.6-.2.8-.4 1.3v.6a20 20 0 0 0-.4 2.5v1A18.6 18.6 0 0 1 40 34.8a19 19 0 0 1-7.9 23 19.2 19.2 0 0 1-18 1.3 31.2 31.2 0 0 0 22.4 4.5c5.5-1 10.6-3.3 15-6.8Zm-2.6-44.4a29.4 29.4 0 0 1 .9 43.2l-1 1-.5.4-.3.2-.2.1-.7.6-3 1.9-1.2.7c-4.1 2-8.8 3-13.5 2.8A29.3 29.3 0 0 0 57 36a29 29 0 0 0-5.8-19l-.8-1-.2-.3-.1-.1-.1-.1a16.4 16.4 0 0 0-19.6-4.6 16.3 16.3 0 0 1 18.5 1.6Zm-4.7 4.7 1.1 1A25.8 25.8 0 0 1 38 60.3l-.6.2-.2.1h-.1l-.3.2-1.2.4c-3.2 1-6.6 1.4-10 1a25.6 25.6 0 0 0 20.5-41l-.7-.8-1-1.2a14.2 14.2 0 0 0-17-3c5-3.5 12.1-2.8 16.8 1ZM31.6 59.6l1-.4.9-.5 1.2-.6 1-.7 1.2-.8a22 22 0 0 0 5.3-29.3l-.6-1-.6-.7-.7-.9a13 13 0 0 0-14.1-4.6 12.7 12.7 0 0 1 12.7 1.5 22.5 22.5 0 0 1-7 39 21 21 0 0 1-9.7.6c3.2.1 6.4-.4 9.4-1.6Z"></path></g><defs><clipPath id="a"><path d="M0 0h162.9v64H0z" fill="#fff"></path></clipPath></defs></svg>