<svg version="1.1" id="embedded-stack" xmlns="http://www.w3.org/2000/svg" xmlns:xlink="http://www.w3.org/1999/xlink" x="0px" y="0px" viewBox="0 0 370 320" style="enable-background:new 0 0 370 320;" xml:space="preserve" class="in">
<g id="base">
	<path style="opacity:0.2;fill:#002D42;enable-background:new    ;" d="M342.5,226.7L208,304.4c-13.4,7.7-36.7,6.7-52.1-2.2
		l-127-73.3c-15.4-8.9-17.1-22.4-3.7-30.1l134.5-77.7c13.4-7.7,36.7-6.7,52.1,2.2l127,73.3C354.2,205.5,355.9,219,342.5,226.7z"></path>
	<polygon style="fill:#7698A8;" points="64.7,243.9 54.1,250.1 61,254 71.6,247.9 	"></polygon>
	<polygon style="fill:#7698A8;" points="52.6,236.9 42,243.1 48.8,247 59.5,240.9 	"></polygon>
	<polygon style="fill:#7698A8;" points="76.8,250.9 66.2,257.1 73.1,261 83.7,254.9 	"></polygon>
	<polygon style="fill:#7698A8;" points="40.5,229.9 29.9,236.1 36.7,240 47.3,233.9 	"></polygon>
	<path style="fill:#7698A8;" d="M28.8,223.2c-0.2-0.1-0.3-0.2-0.4-0.3L17.8,229l6.9,4l10.6-6.1L28.8,223.2z"></path>
	<polygon style="fill:#7698A8;" points="88.9,257.9 78.3,264 85.2,268 95.8,261.9 	"></polygon>
	<polygon style="fill:#7698A8;" points="137.4,285.9 126.8,292 133.6,296 144.3,289.9 	"></polygon>
	<polygon style="fill:#7698A8;" points="101.1,264.9 90.4,271 97.3,275 107.9,268.9 	"></polygon>
	<path style="fill:#7698A8;" d="M155.9,296.6l-6.3-3.7L139,299l6.9,4l10.6-6.1C156.2,296.7,156,296.7,155.9,296.6z"></path>
	<polygon style="fill:#7698A8;" points="113.2,271.9 102.6,278 109.4,282 120,275.9 	"></polygon>
	<polygon style="fill:#7698A8;" points="125.3,278.9 114.7,285 121.5,289 132.1,282.9 	"></polygon>
	<polygon style="fill:#7698A8;" points="247.6,275.9 258.2,282 265.1,278 254.5,271.9 	"></polygon>
	<polygon style="fill:#7698A8;" points="235.5,282.9 246.1,289 253,285 242.4,278.9 	"></polygon>
	<polygon style="fill:#7698A8;" points="259.7,268.9 270.3,275 277.2,271 266.6,264.9 	"></polygon>
	<polygon style="fill:#7698A8;" points="223.4,289.8 234,296 240.9,292 230.2,285.9 	"></polygon>
	<path style="fill:#7698A8;" d="M211.7,296.6c-0.2,0.1-0.3,0.2-0.5,0.3l10.6,6.1l6.9-4l-10.6-6.1L211.7,296.6z"></path>
	<polygon style="fill:#7698A8;" points="271.8,261.9 282.5,268 289.3,264 278.7,257.9 	"></polygon>
	<polygon style="fill:#7698A8;" points="320.3,233.9 330.9,240 337.8,236.1 327.2,229.9 	"></polygon>
	<polygon style="fill:#7698A8;" points="284,254.9 294.6,261 301.4,257 290.8,250.9 	"></polygon>
	<path style="fill:#7698A8;" d="M338.8,223.2l-6.3,3.7L343,233l6.9-4l-10.6-6.1C339.1,223,338.9,223.1,338.8,223.2z"></path>
	<polygon style="fill:#7698A8;" points="296.1,247.9 306.7,254 313.5,250 302.9,243.9 	"></polygon>
	<polygon style="fill:#7698A8;" points="308.2,240.9 318.8,247 325.7,243 315.1,236.9 	"></polygon>
	<path style="fill:#063561;" d="M342.5,202.8L208,280.4c-13.4,7.7-36.7,6.7-52.1-2.2l-127-73.3c-15.4-8.9-17.1-22.4-3.7-30.1
		l134.5-77.7c13.4-7.7,36.7-6.7,52.1,2.2l127,73.3C354.2,181.6,355.9,195,342.5,202.8z"></path>
	<path style="fill:#041E36;" d="M342.5,202.8L208,280.4c-13.4,7.7-36.7,6.7-52.1-2.2l-127-73.3c-8.6-5-12.9-11.4-12.7-17.4l0,0v18.1
		c-0.3,6.1,4,12.6,12.7,17.6l127,73.3c15.4,8.9,38.8,9.9,52.1,2.2L342.5,221c5.9-3.4,8.9-7.9,9-12.7v-18.1l0,0
		C351.3,194.9,348.3,199.4,342.5,202.8z"></path>
	<polygon style="fill:#7698A8;" points="273.1,147.3 280,151.2 290.8,145 289.1,144 283.9,141 	"></polygon>
	<polygon style="fill:#7698A8;" points="285.2,154.2 292.1,158.2 302.9,151.9 296.1,148 	"></polygon>
	<polygon style="fill:#7698A8;" points="271.8,134 261,140.3 267.8,144.2 278.7,138 275.3,136 	"></polygon>
	<polygon style="fill:#7698A8;" points="308.2,155 297.3,161.2 304.2,165.2 315,158.9 312.6,157.5 	"></polygon>
	<path style="fill:#7698A8;" d="M321.6,175.2l6.9,4l10.8-6.2c-0.2-0.1-0.3-0.2-0.5-0.3l-6.4-3.7L321.6,175.2z"></path>
	<polygon style="fill:#7698A8;" points="316.3,172.2 327.2,165.9 325.7,165.1 320.3,162 309.4,168.2 	"></polygon>
	<polygon style="fill:#7698A8;" points="248.9,133.3 255.7,137.2 266.6,131 261.4,128 259.7,127 	"></polygon>
	<path style="fill:#7698A8;" d="M200.4,105.3l6.9,4l10.8-6.3l-6.4-3.7c-0.2-0.1-0.3-0.2-0.5-0.3L200.4,105.3z"></path>
	<polygon style="fill:#7698A8;" points="219.4,116.2 230.2,110 223.4,106 212.5,112.3 	"></polygon>
	<polygon style="fill:#7698A8;" points="236.8,126.3 243.6,130.2 254.5,124 250,121.4 247.6,120 	"></polygon>
	<polygon style="fill:#7698A8;" points="235.5,113 224.6,119.3 231.5,123.2 242.3,117 238,114.4 	"></polygon>
	<polygon style="fill:#7698A8;" points="124,130.2 130.9,126.3 120,120 113.1,124 	"></polygon>
	<polygon style="fill:#7698A8;" points="87.6,151.2 94.5,147.3 83.7,141 76.8,145 	"></polygon>
	<polygon style="fill:#7698A8;" points="99.8,144.2 106.6,140.3 95.8,134 88.9,138 	"></polygon>
	<polygon style="fill:#7698A8;" points="111.9,137.2 118.7,133.3 107.9,127 101,131 	"></polygon>
	<polygon style="fill:#7698A8;" points="143,119.3 132.1,113 125.3,117 136.1,123.2 	"></polygon>
	<polygon style="fill:#7698A8;" points="75.5,158.2 82.4,154.2 71.5,148 64.7,151.9 	"></polygon>
	<polygon style="fill:#7698A8;" points="137.4,110 148.2,116.2 155.1,112.3 144.2,106 	"></polygon>
	<polygon style="fill:#7698A8;" points="167.2,105.3 156.4,99 149.5,103 160.3,109.2 	"></polygon>
	<polygon style="fill:#7698A8;" points="51.3,172.2 58.2,168.2 47.3,162 40.5,165.9 	"></polygon>
	<polygon style="fill:#7698A8;" points="63.4,165.2 70.3,161.2 59.4,155 52.6,158.9 	"></polygon>
	<polygon style="fill:#7698A8;" points="39.2,179.2 46,175.2 35.2,169 28.3,172.9 	"></polygon>
	<polygon style="fill:#7698A8;" points="58.2,209.3 51.3,205.4 40.5,211.6 47.3,215.6 	"></polygon>
	<polygon style="fill:#7698A8;" points="70.3,216.3 63.4,212.4 52.6,218.6 59.4,222.6 	"></polygon>
	<path style="fill:#7698A8;" d="M39.2,198.4l-10.8,6.2c0.2,0.1,0.3,0.2,0.5,0.3l6.4,3.7l10.8-6.3L39.2,198.4z"></path>
	<polygon style="fill:#7698A8;" points="82.4,223.3 75.5,219.4 64.7,225.6 71.5,229.6 	"></polygon>
	<path style="fill:#7698A8;" d="M160.3,268.3l-10.8,6.3l6.4,3.7c0.2,0.1,0.3,0.2,0.5,0.3l10.8-6.2L160.3,268.3z"></path>
	<polygon style="fill:#7698A8;" points="106.6,237.3 99.8,233.3 88.9,239.6 95.8,243.6 	"></polygon>
	<polygon style="fill:#7698A8;" points="155.1,265.3 148.2,261.3 137.4,267.6 144.2,271.5 	"></polygon>
	<polygon style="fill:#7698A8;" points="143,258.3 136.1,254.3 125.3,260.6 132.1,264.5 	"></polygon>
	<polygon style="fill:#7698A8;" points="94.5,230.3 87.6,226.3 76.8,232.6 83.7,236.6 	"></polygon>
	<polygon style="fill:#7698A8;" points="118.7,244.3 111.9,240.3 101,246.6 107.9,250.6 	"></polygon>
	<polygon style="fill:#7698A8;" points="130.9,251.3 124,247.3 113.1,253.6 120,257.6 	"></polygon>
	<polygon style="fill:#435761;" points="47.3,215.6 40.5,211.6 40.5,229.9 47.3,233.9 	"></polygon>
	<polygon style="fill:#435761;" points="59.4,222.6 52.6,218.6 52.6,236.9 59.4,240.9 	"></polygon>
	<path style="fill:#435761;" d="M28.3,222.9c0.2,0.1,0.3,0.2,0.5,0.3l6.4,3.7v-18.3l-6.9-4C28.3,204.6,28.3,222.9,28.3,222.9z"></path>
	<polygon style="fill:#435761;" points="71.5,229.6 64.7,225.6 64.7,243.9 71.5,247.9 	"></polygon>
	<path style="fill:#435761;" d="M149.5,292.9l6.4,3.7c0.2,0.1,0.3,0.2,0.5,0.3v-18.3l-6.9-4V292.9z"></path>
	<polygon style="fill:#435761;" points="120,257.6 113.1,253.6 113.1,271.9 120,275.9 	"></polygon>
	<polygon style="fill:#435761;" points="132.1,264.6 125.3,260.6 125.3,278.9 132.1,282.9 	"></polygon>
	<polygon style="fill:#435761;" points="144.2,271.5 137.4,267.6 137.4,285.9 144.2,289.8 	"></polygon>
	<polygon style="fill:#435761;" points="107.9,250.6 101,246.6 101,264.9 107.9,268.9 	"></polygon>
	<polygon style="fill:#435761;" points="95.8,243.6 88.9,239.6 88.9,257.9 95.8,261.9 	"></polygon>
	<polygon style="fill:#435761;" points="83.7,236.6 76.8,232.6 76.8,250.9 83.7,254.9 	"></polygon>
	<polygon style="fill:#7698A8;" points="255.7,240.3 248.9,244.3 259.7,250.6 266.6,246.6 	"></polygon>
	<polygon style="fill:#7698A8;" points="267.8,233.3 261,237.3 271.8,243.6 278.7,239.6 	"></polygon>
	<polygon style="fill:#7698A8;" points="243.6,247.3 236.8,251.3 247.6,257.6 254.5,253.6 	"></polygon>
	<polygon style="fill:#7698A8;" points="231.5,254.3 224.6,258.3 235.5,264.5 242.3,260.6 	"></polygon>
	<polygon style="fill:#7698A8;" points="219.4,261.3 212.5,265.3 223.4,271.5 230.2,267.6 	"></polygon>
	<polygon style="fill:#7698A8;" points="218.1,274.6 207.3,268.3 200.4,272.3 211.3,278.5 	"></polygon>
	<polygon style="fill:#7698A8;" points="316.3,205.4 309.4,209.3 320.3,215.6 327.2,211.6 	"></polygon>
	<polygon style="fill:#7698A8;" points="328.4,198.4 321.6,202.3 332.4,208.6 339.3,204.6 	"></polygon>
	<polygon style="fill:#7698A8;" points="280,226.3 273.1,230.3 283.9,236.6 290.8,232.6 	"></polygon>
	<polygon style="fill:#7698A8;" points="304.2,212.4 297.3,216.3 308.2,222.6 315,218.6 	"></polygon>
	<polygon style="fill:#7698A8;" points="292.1,219.4 285.2,223.3 296.1,229.6 302.9,225.6 	"></polygon>
	<path style="fill:#435761;" d="M247.6,275.9l6.9-4v-18.3l-6.9,4V275.9z M235.5,282.8l6.9-4v-18.3l-6.9,4V282.8z M223.4,289.8l6.9-4
		v-18.3l-6.9,4V289.8z M259.7,268.9l6.9-4v-18.3l-6.9,4V268.9z M211.3,296.8c0.2-0.1,0.3-0.2,0.5-0.3l6.4-3.7v-18.3l-6.9,4V296.8z
		 M332.4,208.6v18.3l6.4-3.7c0.2-0.1,0.3-0.2,0.5-0.3v-18.3L332.4,208.6z M308.2,240.9l6.9-4v-18.3l-6.9,4V240.9z M271.8,261.9
		l6.9-4v-18.3l-6.9,4V261.9z M320.3,233.9l6.9-4v-18.3l-6.9,4V233.9z M283.9,254.9l6.9-4v-18.3l-6.9,4V254.9z M296.1,247.9l6.9-4
		v-18.3l-6.9,4V247.9z"></path>
</g>
<path style="opacity:0.2;enable-background:new    ;" d="M313.1,189.9l-121.6-70.7c-4-2.3-10.5-2.3-14.6,0L54.6,189.9
	c-4,2.3-4.1,6.1,0,8.4L176.1,269c4,2.3,10.5,2.3,14.6,0L313,198.3C317.1,196,317.1,192.2,313.1,189.9z"></path>
<g id="bluetooth">
	<g>
		<path style="fill:#0961AD;" d="M313.1,155.9L191.5,85.3c-4-2.3-10.5-2.3-14.6,0L54.6,155.9c-4,2.3-4.1,6.1,0,8.4L176.1,235
			c4,2.3,10.5,2.3,14.6,0L313,164.4C317.1,162,317.1,158.2,313.1,155.9z"></path>
		<path style="fill:#064A85;" d="M313,164.4L190.7,235c-4,2.3-10.6,2.3-14.6,0L54.5,164.4c-2-1.2-3-2.7-3-4.2v28.3c0,1.5,1,3,3,4.2
			l121.6,70.6c4,2.3,10.5,2.3,14.6,0L313,192.7c2-1.2,3-2.7,3-4.2v-28.3C316.1,161.6,315,163.2,313,164.4z"></path>
	</g>
	<g>
		<text transform="matrix(0.6239 -0.3535 -1.525000e-02 0.9999 213.7598 241.135)" style="enable-background:new    ;"><tspan x="0" y="0" style="fill:#F2F2F2; font-family:Arial;font-weight:bold; font-size:18.3166px;">BLUE</tspan><tspan x="49.9" y="0" style="fill:#F2F2F2; font-family:Arial;font-weight:bold; font-size:18.3166px;">T</tspan><tspan x="60.7" y="0" style="fill:#F2F2F2; font-family:Arial;font-weight:bold; font-size:18.3166px;">OOTH</tspan></text>
	</g>
	<path id="symbol_00000005957727325555034580000006767502829502241961_" style="fill:#08569C;" d="M136.3,131.8l-5.3,3.1
		c-14.7,8.7-13.5,23.3,2.6,32.6l39.5,22.9c16.1,9.4,41.1,9.9,55.8,1.2l5.3-3.1c14.7-8.7,13.5-23.3-2.6-32.6L192.1,133
		C176,123.7,151,123.1,136.3,131.8z M213.7,160.7l6.3,26l-33.4-19.3l0.8,12.5l-7.2-0.2l-1-15.7l-27.2-0.6l-0.3-4.2l21.7,0.5
		l-31.8-18.4l43.5,2.8l1,15.9L213.7,160.7z M191.2,164.4l16.3,0.4l2.6,10.5L191.2,164.4z M178.2,147.9l0.6,9.3l-18.1-10.5
		L178.2,147.9z"></path>
</g>
<g id="swaralink">
	<g>
		<path style="fill:#6EBDE1;" d="M313.1,115.8L191.5,45.1c-4-2.3-10.5-2.3-14.6,0L54.6,115.8c-4,2.3-4.1,6.1,0,8.4l121.6,70.6
			c4,2.3,10.5,2.3,14.6,0L313,124.2C317.1,121.9,317.1,118.1,313.1,115.8z"></path>
		<path style="fill:#28AAE1;" d="M313,124.2l-122.4,70.6c-4,2.3-10.6,2.3-14.6,0L54.5,124.2c-2-1.2-3-2.7-3-4.2v28.3
			c0,1.5,1,3,3,4.2l121.6,70.6c4,2.3,10.5,2.3,14.6,0L313,152.5c2-1.2,3-2.7,3-4.2V120C316.1,121.5,315,123.1,313,124.2z"></path>
	</g>
	<g id="symbol">
		<path style="fill:#28AAE1;" d="M155.2,105.6c1.3-4.3,10.3-8.1,15.8-11.3c0,0-2-6.2-2-6.2c-5.4,3.2-15.2,7.8-18.9,11.5
			c-5.1,4.8-6.9,10.7-1.9,16c4.9,5.2,13.4,7.2,24.5,5.3c6.9-1,12.7-3.6,20.6-3.5c7.8,0.3,11.8,4.6,12.2,7.5c0.4,2.6-1.3,5.1-4,7.3
			c-2.1,2-16.1,9.1-19.1,11c-10.3,6.2-10.7,3.2-7.7,11.7c1.3-0.7,31-17.3,31.1-17.5c2.7-1.7,5-3.7,6.6-5.7
			c4.7-5.8,4.1-13.4-6.2-18.6c-5.3-2.7-12.6-2.8-19.2-1.8c-7.5,1-14,3.8-22.3,3.4c-2.9-0.2-5.3-1.2-6.8-2.3
			C154.9,110.4,154.4,107.9,155.2,105.6z"></path>
		<path style="fill:#28AAE1;" d="M224.3,89.8c-9.4-0.3-13.1,6.1-12.6,9.6c0,0.4,0.1,0.8,0.3,1.2c0,0-15.4,8.6-15.4,8.6
			c3.3,0.1,6.6,0.8,9.1,1.8c2.3-1.3,8.2-4.6,10.6-5.9c6,2.9,12.7,0.2,15-2.3c2.8-2.9,3.4-6.3,0.9-9.5
			C230.9,91.8,228.2,90,224.3,89.8z M223.8,94.6c4.5,0.8,4.1,4.2,2.4,5.7c-2.8,2.5-7.6,1.4-8.2-1.2
			C217.5,97.4,219.2,94.2,223.8,94.6z"></path>
		<path style="fill:#28AAE1;" d="M146.2,148.4c3.7,0.1,6.5-1.2,8.3-2.4c2.7-1.9,3.8-4.2,3.8-6.5c0-0.6-0.1-1.2-0.3-1.8
			c0,0,33.1-18.4,33.1-18.4c-4.9,0.3-9,1.5-13.2,2.5c-1.4,0.3-3,0.6-4.5,0.9c0,0-1.1,0.2-1.1,0.2L153.8,133c-6.3-3-13.2,0-15.4,2.6
			c-2.5,2.8-2.9,6.1-0.5,9.2C139.2,146.5,142.1,148.3,146.2,148.4z M146.2,143.6c-4.5-0.8-4.1-4.2-2.4-5.7c2.8-2.5,7.6-1.4,8.2,1.2
			C152.5,140.7,150.8,144,146.2,143.6z"></path>
	</g>
	<text transform="matrix(0.6239 -0.3535 -1.525000e-02 0.9999 215.149 200.5242)" style="enable-background:new    ;"><tspan x="0" y="0" style="fill:#F2F2F2; font-family:Arial;font-weight:bold; font-size:18.3166px;">S</tspan><tspan x="12.2" y="0" style="fill:#F2F2F2; font-family:Arial;font-weight:bold; font-size:18.3166px;">W</tspan><tspan x="28.5" y="0" style="fill:#F2F2F2; font-family:Arial;font-weight:bold; font-size:18.3166px;">ARALINK</tspan></text>
</g>
<g id="application">
	<g>
		
			<linearGradient id="SVGID_1_" gradientUnits="userSpaceOnUse" x1="277.1015" y1="388.4283" x2="201.0441" y2="267.4847" gradientTransform="matrix(1 0 0 -1 0 320)">
			<stop offset="0" style="stop-color:#B9C0C7"></stop>
			<stop offset="1" style="stop-color:#F5F5F5"></stop>
		</linearGradient>
		<path style="fill:url(#SVGID_1_);" d="M313.1,75.7L191.5,5c-4-2.3-10.5-2.3-14.6,0L54.6,75.7c-4,2.3-4.1,6.1,0,8.4l121.6,70.6
			c4,2.3,10.5,2.3,14.6,0L313,84.1C317.1,81.8,317.1,78,313.1,75.7z"></path>
		<path style="fill:#E0E6ED;" d="M313,84.1l-122.4,70.6c-4,2.3-10.6,2.3-14.6,0L54.5,84.1c-2-1.2-3-2.7-3-4.2v28.3c0,1.5,1,3,3,4.2
			L176.1,183c4,2.3,10.5,2.3,14.6,0L313,112.4c2-1.2,3-2.7,3-4.2V79.9C316.1,81.4,315,82.9,313,84.1z"></path>
	</g>
	<g>
		<text transform="matrix(0.6239 -0.3535 -1.525000e-02 0.9999 214.6806 162.8662)" style="enable-background:new    ;"><tspan x="0" y="0" style="fill:#4D4D4D; font-family:Arial;font-weight:bold; font-size:18.3166px;">APPLIC</tspan><tspan x="67.2" y="0" style="fill:#4D4D4D; font-family:Arial;font-weight:bold; font-size:18.3166px;">A</tspan><tspan x="79" y="0" style="fill:#4D4D4D; font-family:Arial;font-weight:bold; font-size:18.3166px;">TION</tspan></text>
	</g>
	<g>
		<path style="fill:#E0E6ED;" d="M242.3,68.3c-3.1-1.7-7.9-1.7-10.9,0c-1.9,1-2.9,2.5-2.9,4.2c0,0.6,0.2,1.3,0.5,1.8L216.7,81
			c-0.1,0.1-0.2,0.1-0.3,0.2c-3.1-1.5-7.7-1.5-10.6,0.1c-1.9,1-2.9,2.5-2.9,4.2s1.1,3.2,2.9,4.2c1.5,0.8,3.5,1.3,5.5,1.3
			s3.9-0.4,5.5-1.3c1.9-1,2.9-2.5,2.9-4.2c0-0.5-0.1-1-0.3-1.4l12.5-6.8c0.1-0.1,0.2-0.1,0.3-0.2c1.4,0.6,3,0.9,4.7,0.9
			c2,0,3.9-0.4,5.5-1.3c1.9-1,2.9-2.5,2.9-4.2C245.2,70.8,244.2,69.3,242.3,68.3z M214.8,86.2c-1.9,1-5.2,1-7.1,0
			c-0.6-0.3-0.8-0.7-0.8-0.7c0-0.1,0.2-0.4,0.8-0.7c0.9-0.5,2.3-0.8,3.6-0.8s2.6,0.3,3.6,0.8c0.6,0.3,0.8,0.7,0.8,0.7
			C215.6,85.6,215.4,85.9,214.8,86.2z M240.4,73.2c-1.9,1-5.2,1-7.1,0l0,0c-0.6-0.3-0.8-0.7-0.8-0.7c0-0.1,0.2-0.4,0.8-0.7
			c0.9-0.5,2.3-0.8,3.6-0.8s2.6,0.3,3.6,0.8c0.6,0.3,0.8,0.7,0.8,0.7C241.2,72.5,241,72.8,240.4,73.2z"></path>
		<path style="fill:#E0E6ED;" d="M133.3,93.9c0-0.6-0.1-1.1-0.4-1.7l13.9-7.5h32.3l16.1-8.8c1.4,0.6,3,0.9,4.7,0.9
			c2,0,3.9-0.4,5.5-1.3c1.9-1,2.9-2.5,2.9-4.2s-1.1-3.2-2.9-4.2c-3.1-1.7-7.9-1.7-10.9,0c-1.9,1-2.9,2.5-2.9,4.2
			c0,0.6,0.1,1.2,0.4,1.8l-13.9,7.6h-32.3l-16.1,8.8l0,0c-2.9-1.1-6.7-1-9.3,0.4c-1.8,1-2.8,2.4-2.8,4s1,3.1,2.8,4
			c1.5,0.8,3.3,1.2,5.1,1.2s3.6-0.4,5.1-1.2C132.3,97,133.3,95.5,133.3,93.9z M196.4,70.7c0.9-0.5,2.3-0.8,3.6-0.8s2.6,0.3,3.6,0.8
			c0.6,0.3,0.8,0.7,0.8,0.7c0,0.1-0.2,0.4-0.8,0.7c-1.9,1-5.2,1-7.1,0l0,0c-0.6-0.3-0.8-0.7-0.8-0.7C195.6,71.3,195.7,71,196.4,70.7
			z M128.6,94.4c-1.7,0.9-4.7,0.9-6.4,0c-0.4-0.2-0.6-0.4-0.6-0.5c0.1-0.1,0.3-0.3,0.6-0.5c1.7-0.9,4.7-0.9,6.4,0
			c0.4,0.2,0.6,0.4,0.6,0.5C129.2,94,129,94.2,128.6,94.4z"></path>
		<path style="fill:#E0E6ED;" d="M240.2,81.5c-1.1,0-2,0.9-2,2c0,17.5-25.3,31.8-56.3,31.8c-6.3,0-12.4-0.6-18.1-1.7l23.3-12.7l0,0
			l0,0c1.5,0.8,3.5,1.3,5.5,1.3s3.9-0.4,5.5-1.3c1.9-1,2.9-2.5,2.9-4.2s-1.1-3.2-2.9-4.2c-3.1-1.7-7.9-1.7-10.9,0
			c-1.9,1-2.9,2.5-2.9,4.2c0,0.4,0.1,0.7,0.2,1.1L158,112.2c-9.7-2.6-18-6.7-23.9-12.1c-0.8-0.7-2.1-0.7-2.8,0.1
			c-0.7,0.8-0.7,2.1,0.1,2.8c11.1,10.1,30,16.2,50.6,16.2c33.2,0,60.3-16.1,60.3-35.8C242.2,82.4,241.3,81.5,240.2,81.5z M189.1,96
			c1.9-1,5.2-1,7.1,0c0.6,0.3,0.8,0.7,0.8,0.7c0,0.1-0.2,0.4-0.8,0.7c-1.9,1-5.2,1-7.1,0c-0.6-0.3-0.8-0.7-0.8-0.7
			S188.4,96.3,189.1,96z"></path>
		<path style="fill:#E0E6ED;" d="M123.6,85.5c1.1,0,2-0.9,2-2c0-17.5,25.3-31.8,56.3-31.8c5.9,0,11.8,0.5,17.3,1.6l-21.7,11.8
			c-0.1,0.1-0.2,0.1-0.3,0.2c-3.1-1.5-7.7-1.5-10.6,0.1c-1.9,1-2.9,2.5-2.9,4.2s1.1,3.2,2.9,4.2c1.5,0.8,3.5,1.3,5.5,1.3
			s3.9-0.4,5.5-1.3c1.9-1,2.9-2.5,2.9-4.2c0-0.5-0.1-1-0.3-1.4l25-13.6c9.1,2.4,17.1,6.1,23,10.9c0.9,0.7,2.1,0.6,2.8-0.3
			s0.6-2.1-0.3-2.8c-11.3-9.2-29.5-14.6-48.8-14.6c-33.2,0-60.3,16.1-60.3,35.8C121.6,84.6,122.5,85.5,123.6,85.5z M175.6,70.3
			c-1.9,1-5.2,1-7.1,0c-0.6-0.3-0.8-0.7-0.8-0.7c0-0.1,0.2-0.4,0.8-0.7c0.9-0.5,2.3-0.8,3.6-0.8s2.6,0.3,3.6,0.8
			c0.6,0.3,0.8,0.7,0.8,0.7C176.4,69.7,176.3,70,175.6,70.3z"></path>
	</g>
</g>
</svg>