<svg preserveAspectRatio="none" overflow="visible" style="display: block;" width="96.9474" height="106.158" viewBox="0 0 96.9474 106.158" fill="none" xmlns="http://www.w3.org/2000/svg">
<g id="Group 284">
<g id="Vector" filter="url(#filter0_f_0_61)">
<path d="M35.2295 51.2685C36.0277 49.405 37.1882 47.7324 38.6382 46.3553L39.8347 45.2166C39.8754 45.179 39.9243 45.1523 39.9771 45.1389C40.03 45.1255 40.0853 45.1257 40.1381 45.1396C40.1908 45.1535 40.2395 45.1806 40.2798 45.2186C40.3201 45.2565 40.3509 45.3042 40.3693 45.3573L40.9038 46.9481C41.2369 47.9461 41.8495 48.9654 42.7171 49.9677C42.7747 50.0317 42.8405 50.0487 42.8857 50.053C42.9309 50.0572 43.0008 50.0487 43.0625 49.989C43.1201 49.9378 43.1489 49.8611 43.1448 49.7843C42.9926 47.2168 43.7327 44.321 45.3528 41.1692C46.6933 38.5506 48.5559 36.5077 50.8832 35.0832L52.5814 34.0469C52.8035 33.9104 53.0872 34.0895 53.0748 34.3582L52.9844 36.4053C52.9227 37.8042 53.079 39.041 53.449 40.0689C53.9013 41.327 54.551 42.4956 55.3816 43.5448C55.9596 44.2739 56.6148 44.9334 57.3347 45.5109C59.0686 46.8934 60.4786 48.6649 61.4589 50.6927C62.4368 52.7382 62.9462 54.9903 62.9474 57.2734C62.9474 59.2865 62.565 61.2355 61.8084 63.0737C61.0779 64.8435 60.0236 66.4497 58.7039 67.8034C57.3717 69.1682 55.8257 70.243 54.1028 70.9893C52.3183 71.7655 50.4268 72.1579 48.4737 72.1579C46.5206 72.1579 44.6291 71.7655 42.8446 70.9936C41.126 70.2516 39.5632 69.1695 38.2434 67.8077C36.9112 66.4429 35.8668 64.8479 35.139 63.0779C34.3836 61.2448 33.996 59.2713 34 57.2777C34 55.1964 34.4112 53.1749 35.2295 51.2685Z" fill="url(#paint0_linear_0_61)"/>
</g>
<foreignObject x="18.1579" y="35.2632" width="34.3158" height="47.5263"><div xmlns="http://www.w3.org/1999/xhtml" style="backdrop-filter:blur(2px);clip-path:url(#bgblur_0_0_61_clip_path);height:100%;width:100%"></div></foreignObject><g id="Vector_2" filter="url(#filter1_d_0_61)" data-figma-bg-blur-radius="4">
<path d="M23.2756 55.3407C24.0013 53.6057 25.0563 52.0485 26.3745 50.7664L27.4622 49.7062C27.4992 49.6712 27.5436 49.6463 27.5917 49.6338C27.6398 49.6213 27.69 49.6216 27.738 49.6345C27.786 49.6475 27.8302 49.6727 27.8669 49.708C27.9035 49.7434 27.9314 49.7878 27.9482 49.8372L28.4341 51.3183C28.7369 52.2475 29.2939 53.1965 30.0826 54.1296C30.1349 54.1892 30.1947 54.2051 30.2358 54.209C30.277 54.213 30.3405 54.2051 30.3966 54.1495C30.4489 54.1018 30.4751 54.0304 30.4713 53.9589C30.333 51.5685 31.0059 48.8723 32.4787 45.938C33.6973 43.4999 35.3906 41.5979 37.5063 40.2717L39.0501 39.3068C39.252 39.1797 39.5099 39.3465 39.4987 39.5967L39.4165 41.5026C39.3604 42.805 39.5024 43.9565 39.8389 44.9135C40.25 46.0849 40.8407 47.1729 41.5957 48.1497C42.1212 48.8285 42.7168 49.4425 43.3713 49.9802C44.9476 51.2674 46.2294 52.9167 47.1206 54.8047C48.0096 56.7091 48.4726 58.8058 48.4737 60.9315C48.4737 62.8057 48.1261 64.6204 47.4383 66.3318C46.7742 67.9795 45.8158 69.4749 44.6161 70.7353C43.4049 72.006 41.9994 73.0066 40.4332 73.7015C38.8109 74.4242 37.0914 74.7895 35.3158 74.7895C33.5403 74.7895 31.8208 74.4242 30.1985 73.7055C28.6361 73.0146 27.2153 72.0072 26.0156 70.7393C24.8045 69.4687 23.855 67.9836 23.1934 66.3357C22.5066 64.629 22.1543 62.7916 22.158 60.9355C22.158 58.9978 22.5318 57.1156 23.2756 55.3407Z" fill="url(#paint1_linear_0_61)"/>
</g>
<foreignObject x="28.6842" y="39.2105" width="39.5789" height="52.7895"><div xmlns="http://www.w3.org/1999/xhtml" style="backdrop-filter:blur(2px);clip-path:url(#bgblur_1_0_61_clip_path);height:100%;width:100%"></div></foreignObject><g id="Vector_3" filter="url(#filter2_d_0_61)" data-figma-bg-blur-radius="4">
<path d="M62.9219 61.6699C62.0511 59.6779 60.7852 57.8899 59.2034 56.4179L57.898 55.2007C57.8537 55.1605 57.8004 55.132 57.7427 55.1176C57.685 55.1033 57.6247 55.1035 57.5671 55.1184C57.5095 55.1332 57.4564 55.1622 57.4125 55.2028C57.3685 55.2434 57.335 55.2943 57.3149 55.3511L56.7318 57.0516C56.3684 58.1185 55.7001 59.2081 54.7536 60.2794C54.6908 60.3478 54.619 60.3661 54.5697 60.3706C54.5203 60.3752 54.4441 60.3661 54.3768 60.3022C54.314 60.2475 54.2826 60.1655 54.2871 60.0834C54.4531 57.3389 53.6456 54.2433 51.8783 50.8742C50.416 48.0749 48.384 45.8912 45.8451 44.3685L43.9925 43.2606C43.7503 43.1147 43.4408 43.3062 43.4543 43.5934L43.553 45.7818C43.6202 47.2771 43.4498 48.5992 43.0461 49.698C42.5527 51.0429 41.8439 52.292 40.9378 53.4136C40.3072 54.193 39.5925 54.898 38.8071 55.5153C36.9156 56.9931 35.3775 58.8868 34.308 61.0545C33.2412 63.241 32.6855 65.6484 32.6842 68.089C32.6842 70.2409 33.1014 72.3244 33.9268 74.2893C34.7237 76.1811 35.8738 77.8981 37.3134 79.3452C38.7668 80.8041 40.4534 81.953 42.3329 82.7508C44.2796 83.5806 46.343 84 48.4737 84C50.6044 84 52.6678 83.5806 54.6145 82.7554C56.4894 81.9622 58.1943 80.8055 59.634 79.3498C61.0873 77.8909 62.2267 76.1858 63.0206 74.2939C63.8447 72.3343 64.2675 70.2247 64.2632 68.0936C64.2632 65.8688 63.8146 63.7078 62.9219 61.6699Z" fill="url(#paint2_linear_0_61)" shape-rendering="crispEdges"/>
<path d="M44.3434 44.4605L45.4089 45.0972C47.8054 46.5347 49.7306 48.5996 51.1247 51.2681L51.1257 51.2691C52.847 54.5507 53.5928 57.4899 53.4391 60.0318H53.4382V60.1588C53.4529 60.4323 53.5681 60.7094 53.7917 60.9176V60.9185C53.7949 60.9216 53.7991 60.9243 53.8024 60.9273C53.8078 60.9323 53.8125 60.9381 53.818 60.9429L53.819 60.941C54.1033 61.1949 54.4311 61.2374 54.6481 61.2174C54.8353 61.2 55.1318 61.1239 55.3796 60.8541L55.3854 60.8482L55.3903 60.8424C56.3917 59.7088 57.1278 58.5226 57.5358 57.3248L57.8737 56.3404L58.6237 57.0396L58.6247 57.0406C60.1206 58.4328 61.3188 60.1244 62.1432 62.0103V62.0113C62.9883 63.9406 63.4127 65.9851 63.4128 68.0933V68.0953C63.4169 70.1129 63.0169 72.11 62.237 73.9644V73.9654C61.4853 75.7565 60.4072 77.369 59.0319 78.7496L59.0299 78.7525C57.668 80.1296 56.0556 81.2226 54.2839 81.9722L54.2829 81.9732C52.4414 82.7537 50.4904 83.15 48.4733 83.15C46.4564 83.1499 44.5061 82.7537 42.6657 81.9693L42.6647 81.9683C40.9997 81.2615 39.4934 80.2631 38.1764 79.0015L37.9157 78.7457C36.5538 77.3766 35.4644 75.7519 34.7096 73.9605H34.7106C33.9296 72.1011 33.5339 70.1294 33.5339 68.0894L33.5407 67.6568C33.6032 65.4936 34.125 63.3683 35.0719 61.4273L35.071 61.4263C36.0842 59.374 37.5417 57.5829 39.3307 56.1851L39.3327 56.1832C40.1682 55.5265 40.9279 54.7764 41.5983 53.9478H41.5993C42.443 52.9035 43.1265 51.754 43.6364 50.523L43.8444 49.9908C44.2962 48.7608 44.473 47.321 44.402 45.7437L44.3434 44.4605Z" stroke="url(#paint3_linear_0_61)" stroke-width="1.7" shape-rendering="crispEdges"/>
</g>
</g>
<defs>
<filter id="filter0_f_0_61" x="0" y="-5.24302e-10" width="96.9474" height="106.158" filterUnits="userSpaceOnUse" color-interpolation-filters="sRGB">
<feFlood flood-opacity="0" result="BackgroundImageFix"/>
<feBlend mode="normal" in="SourceGraphic" in2="BackgroundImageFix" result="shape"/>
<feGaussianBlur stdDeviation="17" result="effect1_foregroundBlur_0_61"/>
</filter>
<filter id="filter1_d_0_61" x="18.1579" y="35.2632" width="34.3158" height="47.5263" filterUnits="userSpaceOnUse" color-interpolation-filters="sRGB">
<feFlood flood-opacity="0" result="BackgroundImageFix"/>
<feColorMatrix in="SourceAlpha" type="matrix" values="0 0 0 0 0 0 0 0 0 0 0 0 0 0 0 0 0 0 127 0" result="hardAlpha"/>
<feOffset dy="4"/>
<feGaussianBlur stdDeviation="2"/>
<feComposite in2="hardAlpha" operator="out"/>
<feColorMatrix type="matrix" values="0 0 0 0 0 0 0 0 0 0 0 0 0 0 0 0 0 0 0.25 0"/>
<feBlend mode="normal" in2="BackgroundImageFix" result="effect1_dropShadow_0_61"/>
<feBlend mode="normal" in="SourceGraphic" in2="effect1_dropShadow_0_61" result="shape"/>
</filter>
<clipPath id="bgblur_0_0_61_clip_path" transform="translate(-18.1579 -35.2632)"><path d="M23.2756 55.3407C24.0013 53.6057 25.0563 52.0485 26.3745 50.7664L27.4622 49.7062C27.4992 49.6712 27.5436 49.6463 27.5917 49.6338C27.6398 49.6213 27.69 49.6216 27.738 49.6345C27.786 49.6475 27.8302 49.6727 27.8669 49.708C27.9035 49.7434 27.9314 49.7878 27.9482 49.8372L28.4341 51.3183C28.7369 52.2475 29.2939 53.1965 30.0826 54.1296C30.1349 54.1892 30.1947 54.2051 30.2358 54.209C30.277 54.213 30.3405 54.2051 30.3966 54.1495C30.4489 54.1018 30.4751 54.0304 30.4713 53.9589C30.333 51.5685 31.0059 48.8723 32.4787 45.938C33.6973 43.4999 35.3906 41.5979 37.5063 40.2717L39.0501 39.3068C39.252 39.1797 39.5099 39.3465 39.4987 39.5967L39.4165 41.5026C39.3604 42.805 39.5024 43.9565 39.8389 44.9135C40.25 46.0849 40.8407 47.1729 41.5957 48.1497C42.1212 48.8285 42.7168 49.4425 43.3713 49.9802C44.9476 51.2674 46.2294 52.9167 47.1206 54.8047C48.0096 56.7091 48.4726 58.8058 48.4737 60.9315C48.4737 62.8057 48.1261 64.6204 47.4383 66.3318C46.7742 67.9795 45.8158 69.4749 44.6161 70.7353C43.4049 72.006 41.9994 73.0066 40.4332 73.7015C38.8109 74.4242 37.0914 74.7895 35.3158 74.7895C33.5403 74.7895 31.8208 74.4242 30.1985 73.7055C28.6361 73.0146 27.2153 72.0072 26.0156 70.7393C24.8045 69.4687 23.855 67.9836 23.1934 66.3357C22.5066 64.629 22.1543 62.7916 22.158 60.9355C22.158 58.9978 22.5318 57.1156 23.2756 55.3407Z"/>
</clipPath><filter id="filter2_d_0_61" x="28.6842" y="39.2105" width="39.5789" height="52.7895" filterUnits="userSpaceOnUse" color-interpolation-filters="sRGB">
<feFlood flood-opacity="0" result="BackgroundImageFix"/>
<feColorMatrix in="SourceAlpha" type="matrix" values="0 0 0 0 0 0 0 0 0 0 0 0 0 0 0 0 0 0 127 0" result="hardAlpha"/>
<feOffset dy="4"/>
<feGaussianBlur stdDeviation="2"/>
<feComposite in2="hardAlpha" operator="out"/>
<feColorMatrix type="matrix" values="0 0 0 0 0 0 0 0 0 0 0 0 0 0 0 0 0 0 0.15 0"/>
<feBlend mode="normal" in2="BackgroundImageFix" result="effect1_dropShadow_0_61"/>
<feBlend mode="normal" in="SourceGraphic" in2="effect1_dropShadow_0_61" result="shape"/>
</filter>
<clipPath id="bgblur_1_0_61_clip_path" transform="translate(-28.6842 -39.2105)"><path d="M62.9219 61.6699C62.0511 59.6779 60.7852 57.8899 59.2034 56.4179L57.898 55.2007C57.8537 55.1605 57.8004 55.132 57.7427 55.1176C57.685 55.1033 57.6247 55.1035 57.5671 55.1184C57.5095 55.1332 57.4564 55.1622 57.4125 55.2028C57.3685 55.2434 57.335 55.2943 57.3149 55.3511L56.7318 57.0516C56.3684 58.1185 55.7001 59.2081 54.7536 60.2794C54.6908 60.3478 54.619 60.3661 54.5697 60.3706C54.5203 60.3752 54.4441 60.3661 54.3768 60.3022C54.314 60.2475 54.2826 60.1655 54.2871 60.0834C54.4531 57.3389 53.6456 54.2433 51.8783 50.8742C50.416 48.0749 48.384 45.8912 45.8451 44.3685L43.9925 43.2606C43.7503 43.1147 43.4408 43.3062 43.4543 43.5934L43.553 45.7818C43.6202 47.2771 43.4498 48.5992 43.0461 49.698C42.5527 51.0429 41.8439 52.292 40.9378 53.4136C40.3072 54.193 39.5925 54.898 38.8071 55.5153C36.9156 56.9931 35.3775 58.8868 34.308 61.0545C33.2412 63.241 32.6855 65.6484 32.6842 68.089C32.6842 70.2409 33.1014 72.3244 33.9268 74.2893C34.7237 76.1811 35.8738 77.8981 37.3134 79.3452C38.7668 80.8041 40.4534 81.953 42.3329 82.7508C44.2796 83.5806 46.343 84 48.4737 84C50.6044 84 52.6678 83.5806 54.6145 82.7554C56.4894 81.9622 58.1943 80.8055 59.634 79.3498C61.0873 77.8909 62.2267 76.1858 63.0206 74.2939C63.8447 72.3343 64.2675 70.2247 64.2632 68.0936C64.2632 65.8688 63.8146 63.7078 62.9219 61.6699Z"/>
</clipPath><linearGradient id="paint0_linear_0_61" x1="24.2002" y1="59.678" x2="35.4697" y2="37.7391" gradientUnits="userSpaceOnUse">
<stop stop-color="#ED8065"/>
<stop offset="1" stop-color="#975BC0"/>
</linearGradient>
<linearGradient id="paint1_linear_0_61" x1="13.249" y1="63.1702" x2="23.886" y2="42.9506" gradientUnits="userSpaceOnUse">
<stop stop-color="#ED8065"/>
<stop offset="1" stop-color="#975BC0"/>
</linearGradient>
<linearGradient id="paint2_linear_0_61" x1="27.9474" y1="88.0789" x2="72.8601" y2="54.8196" gradientUnits="userSpaceOnUse">
<stop stop-color="white" stop-opacity="0.2"/>
<stop offset="1" stop-color="white" stop-opacity="0.5"/>
</linearGradient>
<linearGradient id="paint3_linear_0_61" x1="61.1053" y1="88.0789" x2="23.9276" y2="53.6996" gradientUnits="userSpaceOnUse">
<stop stop-color="white" stop-opacity="0"/>
<stop offset="1" stop-color="white"/>
</linearGradient>
</defs>
</svg>
