<svg preserveAspectRatio="none" overflow="visible" style="display: block;" width="49.5978" height="48.2404" viewBox="0 0 49.5978 48.2404" fill="none" xmlns="http://www.w3.org/2000/svg">
<g id="Group 203">
<g id="Rectangle 105" filter="url(#filter0_f_0_8)">
<path d="M18.0031 14.7868C18.1033 14.3275 18.51 14 18.9801 14H30.6177C31.0879 14 31.4945 14.3275 31.5947 14.7868L35.5745 33.0273C35.7105 33.6508 35.2356 34.2404 34.5974 34.2404H15.0004C14.3622 34.2404 13.8873 33.6508 14.0234 33.0273L18.0031 14.7868Z" fill="url(#paint0_linear_0_8)"/>
</g>
<path id="Rectangle 104" d="M18.0031 27.6685C18.1033 27.2091 18.51 26.8816 18.9801 26.8816H30.6177C31.0879 26.8816 31.4945 27.2091 31.5947 27.6685L35.5745 45.9089C35.7105 46.5324 35.2356 47.1221 34.5974 47.1221H15.0004C14.3622 47.1221 13.8873 46.5324 14.0234 45.9089L18.0031 27.6685Z" fill="url(#paint1_linear_0_8)"/>
<foreignObject x="2.40499" y="-2.8805" width="44.8008" height="48.8008"><div xmlns="http://www.w3.org/1999/xhtml" style="backdrop-filter:blur(2px);clip-path:url(#bgblur_0_0_8_clip_path);height:100%;width:100%"></div></foreignObject><g id="Ellipse 31" filter="url(#filter1_d_0_8)" data-figma-bg-blur-radius="4">
<circle cx="24.8054" cy="19.5199" r="18.4004" fill="url(#paint2_linear_0_8)" shape-rendering="crispEdges"/>
<circle cx="24.8054" cy="19.5199" r="17.5254" stroke="url(#paint3_linear_0_8)" stroke-width="1.75" shape-rendering="crispEdges"/>
</g>
<g id="Vector (Stroke)" filter="url(#filter2_di_0_8)">
<path fill-rule="evenodd" clip-rule="evenodd" d="M24.7949 8.48127C25.8091 8.48042 26.6319 9.34277 26.6328 10.4074L26.6401 20.0457C26.6409 21.1103 25.8194 21.974 24.8052 21.9749C23.791 21.9757 22.9682 21.1134 22.9674 20.0488L22.96 10.4105C22.9592 9.34585 23.7807 8.48212 24.7949 8.48127ZM24.7964 23.9025C25.8106 23.9025 26.6328 24.7656 26.6328 25.8302V26.794C26.6328 27.8587 25.8106 28.7217 24.7964 28.7217C23.7822 28.7217 22.96 27.8587 22.96 26.794V25.8302C22.96 24.7656 23.7822 23.9025 24.7964 23.9025Z" fill="url(#paint4_linear_0_8)" shape-rendering="crispEdges"/>
</g>
</g>
<defs>
<filter id="filter0_f_0_8" x="0" y="0" width="49.5978" height="48.2404" filterUnits="userSpaceOnUse" color-interpolation-filters="sRGB">
<feFlood flood-opacity="0" result="BackgroundImageFix"/>
<feBlend mode="normal" in="SourceGraphic" in2="BackgroundImageFix" result="shape"/>
<feGaussianBlur stdDeviation="7" result="effect1_foregroundBlur_0_8"/>
</filter>
<filter id="filter1_d_0_8" x="2.40499" y="-2.8805" width="44.8008" height="48.8008" filterUnits="userSpaceOnUse" color-interpolation-filters="sRGB">
<feFlood flood-opacity="0" result="BackgroundImageFix"/>
<feColorMatrix in="SourceAlpha" type="matrix" values="0 0 0 0 0 0 0 0 0 0 0 0 0 0 0 0 0 0 127 0" result="hardAlpha"/>
<feOffset dy="4"/>
<feGaussianBlur stdDeviation="2"/>
<feComposite in2="hardAlpha" operator="out"/>
<feColorMatrix type="matrix" values="0 0 0 0 0 0 0 0 0 0 0 0 0 0 0 0 0 0 0.15 0"/>
<feBlend mode="normal" in2="BackgroundImageFix" result="effect1_dropShadow_0_8"/>
<feBlend mode="normal" in="SourceGraphic" in2="effect1_dropShadow_0_8" result="shape"/>
</filter>
<clipPath id="bgblur_0_0_8_clip_path" transform="translate(-2.40499 2.8805)"><circle cx="24.8054" cy="19.5199" r="18.4004"/>
</clipPath><filter id="filter2_di_0_8" x="21.46" y="7.98127" width="6.68008" height="24.7404" filterUnits="userSpaceOnUse" color-interpolation-filters="sRGB">
<feFlood flood-opacity="0" result="BackgroundImageFix"/>
<feColorMatrix in="SourceAlpha" type="matrix" values="0 0 0 0 0 0 0 0 0 0 0 0 0 0 0 0 0 0 127 0" result="hardAlpha"/>
<feOffset dy="1"/>
<feGaussianBlur stdDeviation="0.75"/>
<feComposite in2="hardAlpha" operator="out"/>
<feColorMatrix type="matrix" values="0 0 0 0 0 0 0 0 0 0 0 0 0 0 0 0 0 0 0.25 0"/>
<feBlend mode="normal" in2="BackgroundImageFix" result="effect1_dropShadow_0_8"/>
<feBlend mode="normal" in="SourceGraphic" in2="effect1_dropShadow_0_8" result="shape"/>
<feColorMatrix in="SourceAlpha" type="matrix" values="0 0 0 0 0 0 0 0 0 0 0 0 0 0 0 0 0 0 127 0" result="hardAlpha"/>
<feOffset dy="8"/>
<feGaussianBlur stdDeviation="2"/>
<feComposite in2="hardAlpha" operator="arithmetic" k2="-1" k3="1"/>
<feColorMatrix type="matrix" values="0 0 0 0 1 0 0 0 0 1 0 0 0 0 1 0 0 0 0.25 0"/>
<feBlend mode="normal" in2="shape" result="effect2_innerShadow_0_8"/>
</filter>
<linearGradient id="paint0_linear_0_8" x1="43.3142" y1="27.6206" x2="38.6549" y2="14.5771" gradientUnits="userSpaceOnUse">
<stop stop-color="#ED8065"/>
<stop offset="1" stop-color="#975BC0"/>
</linearGradient>
<linearGradient id="paint1_linear_0_8" x1="43.3142" y1="40.5022" x2="38.6549" y2="27.4587" gradientUnits="userSpaceOnUse">
<stop stop-color="#ED8065"/>
<stop offset="1" stop-color="#975BC0"/>
</linearGradient>
<linearGradient id="paint2_linear_0_8" x1="0.88487" y1="41.6004" x2="43.2058" y2="1.1195" gradientUnits="userSpaceOnUse">
<stop stop-color="white" stop-opacity="0.2"/>
<stop offset="1" stop-color="white" stop-opacity="0.5"/>
</linearGradient>
<linearGradient id="paint3_linear_0_8" x1="39.5257" y1="41.6003" x2="6.40499" y2="2.03952" gradientUnits="userSpaceOnUse">
<stop stop-color="white" stop-opacity="0"/>
<stop offset="1" stop-color="white"/>
</linearGradient>
<linearGradient id="paint4_linear_0_8" x1="22.408" y1="30.7457" x2="30.2743" y2="29.3777" gradientUnits="userSpaceOnUse">
<stop stop-color="white" stop-opacity="0.2"/>
<stop offset="1" stop-color="white" stop-opacity="0.5"/>
</linearGradient>
</defs>
</svg>
