<svg width="167" height="52" viewBox="0 0 167 52" fill="none" xmlns="http://www.w3.org/2000/svg">
    <path d="M1.86788 35.0435V17.1219H9.4656C10.2902 17.1219 11.0474 17.2902 11.7373 17.6267C12.4273 17.9633 13.0247 18.4177 13.5295 18.9898C14.0512 19.5619 14.455 20.2014 14.7411 20.9082C15.0272 21.6149 15.1702 22.3385 15.1702 23.0789C15.1702 24.0886 14.9346 25.0478 14.4634 25.9565C13.9923 26.8652 13.3444 27.6056 12.5198 28.1777C11.6953 28.7499 10.7193 29.036 9.59181 29.036H5.35122V35.0435H1.86788ZM5.35122 25.9817H9.38988C9.81057 25.9817 10.1892 25.8639 10.5258 25.6283C10.8623 25.3927 11.1315 25.0562 11.3335 24.6187C11.5354 24.1643 11.6364 23.6511 11.6364 23.0789C11.6364 22.4563 11.5186 21.9262 11.283 21.4887C11.0642 21.0512 10.7698 20.7231 10.3995 20.5043C10.0462 20.2855 9.65912 20.1762 9.23843 20.1762H5.35122V25.9817ZM17.2412 16.6171H20.6236V30.8029C20.6236 31.4087 20.7245 31.8209 20.9265 32.0397C21.1284 32.2416 21.4061 32.3426 21.7594 32.3426C22.0287 32.3426 22.3063 32.3089 22.5924 32.2416C22.8785 32.1743 23.1309 32.0902 23.3497 31.9892L23.804 34.5639C23.3497 34.7826 22.8196 34.9509 22.2138 35.0687C21.608 35.1865 21.0611 35.2454 20.5731 35.2454C19.5129 35.2454 18.6884 34.9677 18.0994 34.4124C17.5273 33.8403 17.2412 33.0325 17.2412 31.9892V16.6171ZM24.369 31.131C24.369 30.2728 24.6046 29.524 25.0758 28.8845C25.5638 28.2282 26.2369 27.7234 27.0951 27.37C27.9533 27.0166 28.9377 26.8399 30.0484 26.8399C30.6037 26.8399 31.1674 26.882 31.7395 26.9661C32.3117 27.0503 32.8081 27.1849 33.2288 27.37V26.6632C33.2288 25.8219 32.9764 25.174 32.4716 24.7196C31.9835 24.2653 31.2515 24.0381 30.2755 24.0381C29.5519 24.0381 28.862 24.1643 28.2057 24.4167C27.5494 24.6692 26.8595 25.0394 26.1359 25.5274L25.0505 23.3061C25.9256 22.734 26.8174 22.3049 27.7261 22.0188C28.6517 21.7327 29.6192 21.5897 30.6289 21.5897C32.5136 21.5897 33.9776 22.0609 35.021 23.0032C36.0811 23.9456 36.6112 25.2918 36.6112 27.0419V31.2572C36.6112 31.6106 36.6701 31.863 36.7879 32.0145C36.9225 32.1659 37.1328 32.2585 37.4189 32.2921V35.0435C37.116 35.0939 36.8383 35.136 36.5859 35.1697C36.3503 35.2033 36.1484 35.2201 35.9801 35.2201C35.307 35.2201 34.7938 35.0687 34.4404 34.7658C34.1038 34.4629 33.8935 34.0927 33.8094 33.6552L33.7336 32.9736C33.1615 33.7141 32.4463 34.2862 31.5881 34.6901C30.7299 35.0939 29.8548 35.2959 28.963 35.2959C28.0879 35.2959 27.297 35.1192 26.5903 34.7658C25.9003 34.3956 25.3534 33.8992 24.9496 33.2765C24.5625 32.6371 24.369 31.9219 24.369 31.131ZM32.5978 31.8125C32.7829 31.6106 32.9343 31.4087 33.0521 31.2067C33.1699 31.0048 33.2288 30.8197 33.2288 30.6514V29.3136C32.8249 29.1453 32.3874 29.0191 31.9162 28.935C31.4451 28.834 30.9991 28.7835 30.5784 28.7835C29.7034 28.7835 28.9798 28.9771 28.4077 29.3641C27.8523 29.7343 27.5747 30.2307 27.5747 30.8534C27.5747 31.1899 27.6672 31.5096 27.8523 31.8125C28.0374 32.1154 28.3067 32.3594 28.6601 32.5445C29.0135 32.7296 29.4341 32.8222 29.9221 32.8222C30.427 32.8222 30.9234 32.7296 31.4114 32.5445C31.8994 32.3426 32.2949 32.0986 32.5978 31.8125ZM45.9308 35.2959C44.8539 35.2959 43.8863 35.1192 43.0281 34.7658C42.1698 34.3956 41.4378 33.8908 40.832 33.2513C40.2262 32.595 39.7551 31.8546 39.4185 31.03C39.0988 30.2055 38.9389 29.3389 38.9389 28.4302C38.9389 27.1849 39.2166 26.049 39.7719 25.0225C40.344 23.9792 41.1518 23.1462 42.1951 22.5236C43.2384 21.901 44.4752 21.5897 45.9056 21.5897C47.336 21.5897 48.5644 21.901 49.5909 22.5236C50.6174 23.1462 51.383 23.9624 51.8879 24.9721L48.5812 25.9817C48.2951 25.4937 47.9165 25.1235 47.4453 24.8711C46.9742 24.6018 46.4525 24.4672 45.8804 24.4672C45.2409 24.4672 44.6519 24.6355 44.1135 24.9721C43.5918 25.2918 43.1795 25.7545 42.8766 26.3603C42.5737 26.9493 42.4223 27.6393 42.4223 28.4302C42.4223 29.2042 42.5737 29.8942 42.8766 30.5C43.1963 31.0889 43.617 31.5601 44.1387 31.9135C44.6604 32.2501 45.2409 32.4183 45.8804 32.4183C46.2842 32.4183 46.6629 32.351 47.0162 32.2164C47.3864 32.0818 47.7146 31.8967 48.0007 31.6611C48.2867 31.4255 48.4971 31.1562 48.6317 30.8534L51.9384 31.863C51.6355 32.5193 51.1895 33.1083 50.6005 33.6299C50.0284 34.1516 49.3469 34.5639 48.556 34.8668C47.7819 35.1528 46.9069 35.2959 45.9308 35.2959ZM60.0301 35.2959C58.9699 35.2959 58.0107 35.1192 57.1525 34.7658C56.2943 34.3956 55.5623 33.8992 54.9565 33.2765C54.3507 32.6371 53.8795 31.9135 53.543 31.1058C53.2232 30.2812 53.0634 29.4146 53.0634 28.5059C53.0634 27.2438 53.341 26.0911 53.8964 25.0478C54.4685 24.0045 55.2762 23.1715 56.3195 22.5489C57.3797 21.9094 58.6249 21.5897 60.0553 21.5897C61.5025 21.5897 62.7393 21.9094 63.7658 22.5489C64.7923 23.1715 65.5748 24.0045 66.1133 25.0478C66.6686 26.0743 66.9463 27.1849 66.9463 28.3797C66.9463 28.5816 66.9378 28.792 66.921 29.0107C66.9042 29.2126 66.8874 29.3809 66.8705 29.5155H56.6477C56.715 30.1887 56.9085 30.7776 57.2282 31.2825C57.5648 31.7873 57.9855 32.1743 58.4903 32.4436C59.012 32.696 59.5673 32.8222 60.1563 32.8222C60.8294 32.8222 61.4604 32.6623 62.0494 32.3426C62.6552 32.0061 63.0675 31.5685 63.2862 31.03L66.189 31.8378C65.8693 32.5109 65.4065 33.1083 64.8007 33.6299C64.2118 34.1516 63.5134 34.5639 62.7057 34.8668C61.8979 35.1528 61.0061 35.2959 60.0301 35.2959ZM56.572 27.37H63.4882C63.4209 26.6969 63.2273 26.1163 62.9076 25.6283C62.6047 25.1235 62.2008 24.7365 61.696 24.4672C61.1912 24.1812 60.6274 24.0381 60.0048 24.0381C59.399 24.0381 58.8437 24.1812 58.3389 24.4672C57.8509 24.7365 57.447 25.1235 57.1273 25.6283C56.8244 26.1163 56.6393 26.6969 56.572 27.37ZM74.9386 35.2959C74.0131 35.2959 73.1548 35.1192 72.3639 34.7658C71.5899 34.4124 70.9168 33.9244 70.3446 33.3018C69.7725 32.6623 69.3265 31.9303 69.0068 31.1058C68.6871 30.2812 68.5272 29.4146 68.5272 28.5059C68.5272 27.5804 68.6871 26.7137 69.0068 25.906C69.3265 25.0814 69.7725 24.3578 70.3446 23.7352C70.9336 23.0958 71.6151 22.5993 72.3892 22.246C73.1801 21.8758 74.0299 21.6906 74.9386 21.6906C75.8473 21.6906 76.6887 21.8758 77.4627 22.246C78.2368 22.5993 78.9183 23.0958 79.5073 23.7352C80.0963 24.3578 80.5506 25.0814 80.8704 25.906C81.1901 26.7137 81.3499 27.5804 81.3499 28.5059C81.3499 29.4146 81.1901 30.2812 80.8704 31.1058C80.5506 31.9303 80.0963 32.6623 79.5073 33.3018C78.9352 33.9244 78.2536 34.4124 77.4627 34.7658C76.6887 35.1192 75.8473 35.2959 74.9386 35.2959ZM69.7893 28.5564C69.7893 29.5829 70.0165 30.5252 70.4708 31.3834C70.942 32.2248 71.5646 32.8979 72.3387 33.4028C73.1128 33.9076 73.971 34.16 74.9133 34.16C75.8557 34.16 76.7139 33.9076 77.488 33.4028C78.2789 32.8811 78.9015 32.1912 79.3559 31.3329C79.827 30.4579 80.0626 29.5071 80.0626 28.4806C80.0626 27.4541 79.827 26.5118 79.3559 25.6536C78.9015 24.7954 78.2789 24.1138 77.488 23.609C76.7139 23.0873 75.8641 22.8265 74.9386 22.8265C73.9962 22.8265 73.138 23.0873 72.3639 23.609C71.5899 24.1307 70.9672 24.8206 70.4961 25.6788C70.0249 26.537 69.7893 27.4962 69.7893 28.5564ZM84.7572 35.0435V22.9527H82.9145V21.9178H84.7572V21.4887C84.7572 20.4286 84.9086 19.5115 85.2115 18.7374C85.5144 17.9633 85.9435 17.3743 86.4988 16.9705C87.0542 16.5666 87.7104 16.3647 88.4677 16.3647C88.9725 16.3647 89.4605 16.4404 89.9317 16.5918C90.4029 16.7433 90.7899 16.9452 91.0928 17.1976L90.6385 18.1063C90.4197 17.9044 90.1336 17.753 89.7803 17.652C89.4269 17.5342 89.0651 17.4753 88.6949 17.4753C87.8366 17.4753 87.172 17.8203 86.7008 18.5102C86.2464 19.1833 86.0193 20.1677 86.0193 21.4635V21.9178H89.755V22.9527H86.0193V35.0435H84.7572ZM97.9424 35.2959C96.8654 35.2959 95.8978 35.1192 95.0396 34.7658C94.1814 34.3956 93.4494 33.8908 92.8436 33.2513C92.2378 32.595 91.7666 31.8546 91.43 31.03C91.1103 30.2055 90.9504 29.3389 90.9504 28.4302C90.9504 27.1849 91.2281 26.049 91.7834 25.0225C92.3555 23.9792 93.1633 23.1462 94.2066 22.5236C95.2499 21.901 96.4868 21.5897 97.9171 21.5897C99.3475 21.5897 100.576 21.901 101.602 22.5236C102.629 23.1462 103.395 23.9624 103.899 24.9721L100.593 25.9817C100.307 25.4937 99.928 25.1235 99.4569 24.8711C98.9857 24.6018 98.464 24.4672 97.8919 24.4672C97.2524 24.4672 96.6634 24.6355 96.125 24.9721C95.6033 25.2918 95.191 25.7545 94.8881 26.3603C94.5852 26.9493 94.4338 27.6393 94.4338 28.4302C94.4338 29.2042 94.5852 29.8942 94.8881 30.5C95.2079 31.0889 95.6285 31.5601 96.1502 31.9135C96.6719 32.2501 97.2524 32.4183 97.8919 32.4183C98.2957 32.4183 98.6744 32.351 99.0277 32.2164C99.398 32.0818 99.7261 31.8967 100.012 31.6611C100.298 31.4255 100.509 31.1562 100.643 30.8534L103.95 31.863C103.647 32.5193 103.201 33.1083 102.612 33.6299C102.04 34.1516 101.358 34.5639 100.567 34.8668C99.7934 35.1528 98.9184 35.2959 97.9424 35.2959ZM105.122 31.131C105.122 30.2728 105.358 29.524 105.829 28.8845C106.317 28.2282 106.99 27.7234 107.849 27.37C108.707 27.0166 109.691 26.8399 110.802 26.8399C111.357 26.8399 111.921 26.882 112.493 26.9661C113.065 27.0503 113.562 27.1849 113.982 27.37V26.6632C113.982 25.8219 113.73 25.174 113.225 24.7196C112.737 24.2653 112.005 24.0381 111.029 24.0381C110.305 24.0381 109.615 24.1643 108.959 24.4167C108.303 24.6692 107.613 25.0394 106.889 25.5274L105.804 23.3061C106.679 22.734 107.571 22.3049 108.48 22.0188C109.405 21.7327 110.373 21.5897 111.382 21.5897C113.267 21.5897 114.731 22.0609 115.774 23.0032C116.835 23.9456 117.365 25.2918 117.365 27.0419V31.2572C117.365 31.6106 117.423 31.863 117.541 32.0145C117.676 32.1659 117.886 32.2585 118.172 32.2921V35.0435C117.869 35.0939 117.592 35.136 117.339 35.1697C117.104 35.2033 116.902 35.2201 116.734 35.2201C116.06 35.2201 115.547 35.0687 115.194 34.7658C114.857 34.4629 114.647 34.0927 114.563 33.6552L114.487 32.9736C113.915 33.7141 113.2 34.2862 112.342 34.6901C111.483 35.0939 110.608 35.2959 109.716 35.2959C108.841 35.2959 108.05 35.1192 107.344 34.7658C106.654 34.3956 106.107 33.8992 105.703 33.2765C105.316 32.6371 105.122 31.9219 105.122 31.131ZM113.351 31.8125C113.536 31.6106 113.688 31.4087 113.806 31.2067C113.923 31.0048 113.982 30.8197 113.982 30.6514V29.3136C113.578 29.1453 113.141 29.0191 112.67 28.935C112.198 28.834 111.753 28.7835 111.332 28.7835C110.457 28.7835 109.733 28.9771 109.161 29.3641C108.606 29.7343 108.328 30.2307 108.328 30.8534C108.328 31.1899 108.421 31.5096 108.606 31.8125C108.791 32.1154 109.06 32.3594 109.413 32.5445C109.767 32.7296 110.188 32.8222 110.676 32.8222C111.18 32.8222 111.677 32.7296 112.165 32.5445C112.653 32.3426 113.048 32.0986 113.351 31.8125ZM128.401 24.7449C127.374 24.7449 126.457 24.9468 125.649 25.3507C124.842 25.7377 124.261 26.3014 123.908 27.0419V35.0435H120.525V21.8169H123.63V24.6439C124.101 23.7352 124.699 23.02 125.422 22.4984C126.146 21.9767 126.911 21.6906 127.719 21.6402C127.904 21.6402 128.047 21.6402 128.148 21.6402C128.249 21.6402 128.333 21.6486 128.401 21.6654V24.7449ZM129.356 28.4302C129.356 27.1512 129.608 25.9985 130.113 24.9721C130.618 23.9287 131.316 23.1042 132.208 22.4984C133.1 21.8926 134.118 21.5897 135.262 21.5897C136.238 21.5897 137.113 21.8337 137.887 22.3217C138.678 22.7929 139.293 23.3987 139.73 24.1391V16.6171H143.112V31.2572C143.112 31.6106 143.171 31.863 143.289 32.0145C143.407 32.1659 143.609 32.2585 143.895 32.2921V35.0435C143.306 35.1613 142.826 35.2201 142.456 35.2201C141.85 35.2201 141.346 35.0687 140.942 34.7658C140.555 34.4629 140.336 34.0674 140.285 33.5794L140.235 32.7465C139.747 33.571 139.082 34.2021 138.241 34.6396C137.416 35.0771 136.55 35.2959 135.641 35.2959C134.732 35.2959 133.891 35.1192 133.117 34.7658C132.359 34.4124 131.695 33.9244 131.123 33.3018C130.567 32.6792 130.13 31.9556 129.81 31.131C129.507 30.2896 129.356 29.3893 129.356 28.4302ZM139.73 30.1971V27.0419C139.562 26.5539 139.293 26.1163 138.922 25.7293C138.552 25.3423 138.14 25.0394 137.685 24.8206C137.231 24.585 136.777 24.4672 136.322 24.4672C135.801 24.4672 135.33 24.5766 134.909 24.7954C134.488 25.0141 134.118 25.3086 133.798 25.6788C133.495 26.049 133.26 26.4781 133.091 26.9661C132.94 27.4541 132.864 27.9674 132.864 28.5059C132.864 29.0444 132.948 29.5576 133.117 30.0456C133.302 30.5168 133.563 30.9291 133.899 31.2825C134.236 31.6358 134.623 31.9135 135.06 32.1154C135.515 32.3174 136.003 32.4183 136.524 32.4183C136.844 32.4183 137.164 32.3678 137.484 32.2669C137.82 32.1491 138.131 31.9976 138.417 31.8125C138.72 31.6106 138.981 31.375 139.2 31.1058C139.436 30.8197 139.612 30.5168 139.73 30.1971ZM151.304 35.2959C150.177 35.2959 149.1 35.1108 148.073 34.7406C147.047 34.3703 146.163 33.8234 145.423 33.0999L146.634 30.9038C147.425 31.5433 148.199 32.0145 148.957 32.3174C149.731 32.6203 150.471 32.7717 151.178 32.7717C151.834 32.7717 152.356 32.6539 152.743 32.4183C153.147 32.1827 153.349 31.8294 153.349 31.3582C153.349 31.0385 153.239 30.7945 153.021 30.6262C152.802 30.4411 152.482 30.2812 152.061 30.1466C151.657 30.012 151.161 29.8605 150.572 29.6922C149.596 29.3725 148.78 29.0612 148.124 28.7583C147.467 28.4554 146.971 28.0768 146.634 27.6224C146.315 27.1512 146.155 26.5539 146.155 25.8303C146.155 24.9552 146.374 24.2064 146.811 23.5838C147.265 22.9443 147.888 22.4479 148.679 22.0945C149.487 21.7411 150.429 21.5644 151.506 21.5644C152.448 21.5644 153.34 21.7159 154.182 22.0188C155.023 22.3049 155.789 22.776 156.479 23.4323L155.116 25.5779C154.442 25.0562 153.803 24.6776 153.197 24.442C152.591 24.1896 151.977 24.0634 151.355 24.0634C151.001 24.0634 150.665 24.1054 150.345 24.1896C150.042 24.2737 149.79 24.4167 149.588 24.6187C149.403 24.8038 149.31 25.073 149.31 25.4264C149.31 25.7461 149.394 25.9985 149.562 26.1837C149.748 26.3519 150.017 26.5034 150.37 26.638C150.74 26.7726 151.186 26.9241 151.708 27.0924C152.768 27.3952 153.66 27.7066 154.384 28.0263C155.124 28.346 155.679 28.7415 156.05 29.2126C156.42 29.667 156.605 30.298 156.605 31.1058C156.605 32.4183 156.125 33.4448 155.166 34.1852C154.207 34.9257 152.92 35.2959 151.304 35.2959Z" fill="#545871"/>
    <rect x="161.441" y="30.0782" width="4.7328" height="4.7328" fill="#545871"/>
</svg>
