<svg width="26" height="27" viewBox="0 0 26 27" fill="none" xmlns="http://www.w3.org/2000/svg">
    <path d="M25.4226 13.7386C25.4226 12.6938 25.3361 11.9315 25.1489 11.1409H12.9757V15.8562H20.1211C19.9771 17.0281 19.1992 18.7928 17.4704 19.9787L17.4462 20.1365L21.2951 23.0586L21.5617 23.0847C24.0107 20.8681 25.4226 17.6069 25.4226 13.7386Z" fill="#4285F4"/>
    <path d="M12.9757 26.1624C16.4763 26.1624 19.4151 25.0329 21.5617 23.0847L17.4704 19.9787C16.3755 20.7269 14.9061 21.2493 12.9757 21.2493C9.54705 21.2493 6.63703 19.0328 5.59969 15.9692L5.44764 15.9819L1.44547 19.0173L1.39313 19.1598C3.52521 23.3105 7.90469 26.1624 12.9757 26.1624Z" fill="#34A853"/>
    <path d="M5.59972 15.9692C5.326 15.1786 5.1676 14.3315 5.1676 13.4562C5.1676 12.5808 5.326 11.7338 5.58532 10.9432L5.57806 10.7748L1.52573 7.69067L1.39315 7.75248C0.514413 9.4749 0.0101929 11.4091 0.0101929 13.4562C0.0101929 15.5033 0.514413 17.4374 1.39315 19.1598L5.59972 15.9692Z" fill="#FBBC05"/>
    <path d="M12.9757 5.66303C15.4103 5.66303 17.0525 6.69364 17.989 7.5549L21.6481 4.05361C19.4008 2.00651 16.4763 0.75 12.9757 0.75C7.90469 0.75 3.52521 3.60181 1.39313 7.75247L5.58529 10.9432C6.63703 7.87959 9.54705 5.66303 12.9757 5.66303Z" fill="#EB4335"/>
</svg>
